<svg xmlns="http://www.w3.org/2000/svg" width="697.818" height="551.543" viewBox="0 0 697.818 551.543">
  <g id="Group_42" data-name="Group 42" transform="translate(2833.891 -492)">
    <path id="Path_412" data-name="Path 412" d="M489.109,76.087q14.3-6.534,28.831-12.534,22.177-9.132,44.8-16.984A842.35,842.35,0,0,1,888.949,1.5c1.469.086,2.91.181,4.37.284,4.405.3,8.8.62,13.2.984A841.9,841.9,0,0,1,1137.958,55.4c2.061.793,4.12,1.585,6.19,2.4,4.175,1.61,8.315,3.293,12.446,4.993q15.309,6.24,30.333,13.118l-91.961,190.994a22.714,22.714,0,0,0,5.246,26.632,22.349,22.349,0,0,0,5.349,3.6c5.911,2.846,13.752,2.6,20.985-.662a38.549,38.549,0,1,1-21.492,44.635c-1.957-7.69-6.657-13.971-12.568-16.817a22.372,22.372,0,0,0-6.148-1.939,22.708,22.708,0,0,0-24.081,12.49L957.933,551.518a308.9,308.9,0,0,0-113.857-24.055c-1.361-.034-2.729-.048-4.08-.055l-2.658-.015c-3.38.015-6.77.093-10.131.205a308.721,308.721,0,0,0-109.088,23.947L628.926,366.358a7.645,7.645,0,0,1,6.411-10.964,71.13,71.13,0,1,0-23.886-139.181,73.715,73.715,0,0,0-10.414,4.065,70.73,70.73,0,0,0-22.556,17.064,7.627,7.627,0,0,1-12.577-1.816Z" transform="translate(-3323 491.998)" fill="#eeaa23"/>
    <path id="Path_413" data-name="Path 413" d="M763.06,318.864H783.2v4.445h-7.317v23.013h-5.507V323.309H763.06Z" transform="translate(-3323 491.998)" fill="#fff"/>
    <path id="Path_414" data-name="Path 414" d="M796.729,346.675c-6.334,0-10.936-4.406-10.936-11.251,0-6.883,4.484-11.25,10.936-11.25,6.293,0,10.738,4.288,10.738,10.778a12.877,12.877,0,0,1-.157,2.125H791.378a5.1,5.1,0,0,0,5.232,5.035,4.49,4.49,0,0,0,4.367-2.636h5.94c-1.18,4.013-4.8,7.2-10.188,7.2m-5.311-13.3h10.346c-.079-2.872-2.361-4.681-5.193-4.681a5.061,5.061,0,0,0-5.153,4.681" transform="translate(-3323 491.998)" fill="#fff"/>
    <path id="Path_415" data-name="Path 415" d="M820.839,324.174c5.429,0,9.087,2.833,10.268,7.71h-5.941a4.281,4.281,0,0,0-4.366-3.029c-3.068,0-5.114,2.321-5.114,6.569s2.046,6.531,5.114,6.531a4.156,4.156,0,0,0,4.366-2.99h5.941c-1.181,4.642-4.839,7.71-10.268,7.71-6.294,0-10.778-4.406-10.778-11.251s4.484-11.25,10.778-11.25" transform="translate(-3323 491.998)" fill="#fff"/>
    <path id="Path_416" data-name="Path 416" d="M835.154,317.212h5.508v10.031a8.371,8.371,0,0,1,6.765-3.029c4.917,0,8.5,3.3,8.5,9.323v12.784h-5.507V334.284c0-3.5-1.928-5.389-4.839-5.389-2.989,0-4.917,1.888-4.917,5.389v12.037h-5.508Z" transform="translate(-3323 491.998)" fill="#fff"/>
    <path id="Path_417" data-name="Path 417" d="M876.416,334.284c0-3.5-1.928-5.389-4.839-5.389-2.989,0-4.917,1.888-4.917,5.389v12.037h-5.508V324.528h5.508v2.714a8.142,8.142,0,0,1,6.569-3.028c5.075,0,8.694,3.3,8.694,9.322v12.785h-5.507Z" transform="translate(-3323 491.998)" fill="#fff"/>
    <path id="Path_418" data-name="Path 418" d="M886.56,318.706a3.387,3.387,0,1,1,3.383,3.226,3.23,3.23,0,0,1-3.383-3.226m.59,5.822h5.508v21.793H887.15Z" transform="translate(-3323 491.998)" fill="#fff"/>
    <path id="Path_419" data-name="Path 419" d="M907.6,346.675c-6.333,0-10.936-4.406-10.936-11.251,0-6.883,4.484-11.25,10.936-11.25,6.294,0,10.739,4.288,10.739,10.778a12.877,12.877,0,0,1-.157,2.125H902.255a5.1,5.1,0,0,0,5.232,5.035,4.49,4.49,0,0,0,4.367-2.636h5.939c-1.18,4.013-4.8,7.2-10.188,7.2m-5.31-13.3H912.64c-.078-2.872-2.36-4.681-5.193-4.681a5.061,5.061,0,0,0-5.152,4.681" transform="translate(-3323 491.998)" fill="#fff"/>
    <path id="Path_420" data-name="Path 420" d="M922.352,317.212h5.508v16.561l7.316-9.245h7.159l-9.6,10.936,9.676,10.857h-7.159l-7.395-9.283v9.283h-5.508Z" transform="translate(-3323 491.998)" fill="#fff"/>
    <path id="Path_421" data-name="Path 421" d="M815.7,235.464a9.516,9.516,0,0,0-4.6,1.174,53.855,53.855,0,0,1,53.174-85.859,2.282,2.282,0,0,0,.908-4.472,58.4,58.4,0,0,0-57.455,93.423,9.585,9.585,0,1,0,7.975-4.266m3.549,13.128a5.017,5.017,0,1,1,1.47-3.549,5.017,5.017,0,0,1-1.47,3.549" transform="translate(-3323 491.998)" fill="#fff"/>
    <path id="Path_422" data-name="Path 422" d="M899.38,167.353a9.562,9.562,0,1,0-3.374,3.107,53.854,53.854,0,0,1-53.071,85.88,2.283,2.283,0,1,0-.908,4.475,58.4,58.4,0,0,0,57.338-93.45Zm-11.521-1.764a5.02,5.02,0,1,1,3.548,1.47A5.019,5.019,0,0,1,887.859,165.589Z" transform="translate(-3323 491.998)" fill="#fff"/>
    <path id="Path_423" data-name="Path 423" d="M844.152,242.774a2.281,2.281,0,0,0,2.281,2.281H860.7a2.282,2.282,0,0,0,2.282-2.281v-4.421a35.711,35.711,0,0,0,8.562-3.549l3.122,3.123a2.283,2.283,0,0,0,3.226,0l10.081-10.087a2.283,2.283,0,0,0,0-3.226l-3.12-3.119a35.71,35.71,0,0,0,3.549-8.562H892.8a2.282,2.282,0,0,0,2.281-2.281V196.389a2.281,2.281,0,0,0-2.281-2.281h-4.421a35.7,35.7,0,0,0-3.546-8.56l3.1-3.1a2.282,2.282,0,0,0,0-3.226l0,0-10.091-10.081a2.281,2.281,0,0,0-3.225,0l-3.1,3.1a35.711,35.711,0,0,0-8.562-3.549v-4.378a2.282,2.282,0,0,0-2.279-2.281H846.421a2.281,2.281,0,0,0-2.281,2.281v4.375a35.689,35.689,0,0,0-8.56,3.546l-3.1-3.1a2.281,2.281,0,0,0-3.225,0L819.17,179.213a2.282,2.282,0,0,0,0,3.225l3.1,3.1a35.688,35.688,0,0,0-3.552,8.56h-4.4a2.281,2.281,0,0,0-2.281,2.281v14.262a2.282,2.282,0,0,0,2.281,2.282h4.405a35.71,35.71,0,0,0,3.549,8.562l-3.119,3.119a2.281,2.281,0,0,0,0,3.226l10.081,10.087a2.28,2.28,0,0,0,3.225,0l3.122-3.123a35.719,35.719,0,0,0,8.563,3.549Zm-7.667-12.768a2.282,2.282,0,0,0-2.85.3l-2.778,2.778L824,226.224l2.774-2.774a2.281,2.281,0,0,0,.3-2.85,31.229,31.229,0,0,1-4.321-10.427,2.282,2.282,0,0,0-2.23-1.815h-3.933v-9.7h3.912a2.281,2.281,0,0,0,2.23-1.815,31.232,31.232,0,0,1,4.32-10.426,2.282,2.282,0,0,0-.3-2.85L824,180.811l6.861-6.856,2.754,2.756a2.282,2.282,0,0,0,2.85.3,31.234,31.234,0,0,1,10.426-4.32,2.281,2.281,0,0,0,1.815-2.23V166.59h9.7V170.5a2.281,2.281,0,0,0,1.815,2.23,31.235,31.235,0,0,1,10.426,4.321,2.279,2.279,0,0,0,2.851-.3l2.756-2.753,6.862,6.856-2.757,2.756a2.282,2.282,0,0,0-.3,2.85,31.233,31.233,0,0,1,4.32,10.426,2.282,2.282,0,0,0,2.23,1.816h3.933v9.7H886.6a2.283,2.283,0,0,0-2.23,1.816,31.192,31.192,0,0,1-4.32,10.426,2.282,2.282,0,0,0,.3,2.85l2.775,2.774-6.856,6.862-2.777-2.777a2.282,2.282,0,0,0-2.851-.3,31.225,31.225,0,0,1-10.444,4.294,2.28,2.28,0,0,0-1.815,2.229V240.5h-9.7v-3.934a2.281,2.281,0,0,0-1.815-2.229,31.236,31.236,0,0,1-10.4-4.33Z" transform="translate(-3323 491.998)" fill="#fff"/>
    <path id="Path_424" data-name="Path 424" d="M872.4,203.542a18.846,18.846,0,1,0-18.846,18.846A18.846,18.846,0,0,0,872.4,203.542m-33.133,0a14.286,14.286,0,1,1,14.287,14.287,14.287,14.287,0,0,1-14.287-14.287" transform="translate(-3323 491.998)" fill="#fff"/>
    <path id="Path_425" data-name="Path 425" d="M874.555,153.774a2.284,2.284,0,1,0-1.613-.669,2.282,2.282,0,0,0,1.613.669" transform="translate(-3323 491.998)" fill="#fff"/>
    <path id="Path_426" data-name="Path 426" d="M832.648,253.348a2.281,2.281,0,1,0,1.613.669,2.28,2.28,0,0,0-1.613-.669" transform="translate(-3323 491.998)" fill="#fff"/>
  </g>
</svg>
