<svg xmlns="http://www.w3.org/2000/svg" width="664.158" height="708.642" viewBox="0 0 664.158 708.642">
  <g id="Group_43" data-name="Group 43" transform="translate(2335.73 -582.155)">
    <path id="Path_427" data-name="Path 427" d="M1216.225,90.157q14.023,7.105,27.774,14.727,20.969,11.646,41.214,24.44a842.316,842.316,0,0,1,238.616,226.944c.849,1.2,1.673,2.388,2.5,3.594q3.766,5.448,7.46,10.933A841.865,841.865,0,0,1,1636.937,584.56c.665,2.1,1.33,4.209,1.98,6.339,1.344,4.268,2.61,8.553,3.855,12.844q4.668,15.858,8.656,31.893l-206.663,47.181a22.713,22.713,0,0,0-17.551,20.7,22.348,22.348,0,0,0,.523,6.425c1.46,6.4,6.538,12.375,13.6,15.994a38.55,38.55,0,1,1-48.3,11.026c4.793-6.325,6.773-13.916,5.313-20.312a22.389,22.389,0,0,0-2.317-6.015,22.708,22.708,0,0,0-24.779-11.041l-234.448,53.523a308.906,308.906,0,0,0-52.18-104.016c-.822-1.084-1.663-2.163-2.5-3.224l-1.646-2.087c-2.119-2.633-4.293-5.235-6.477-7.793a308.682,308.682,0,0,0-86.736-70.36l89.179-185.194a7.646,7.646,0,0,1,12.569-1.823,71.13,71.13,0,1,0,93.926-105.45,73.608,73.608,0,0,0-9.671-5.609,70.74,70.74,0,0,0-27.4-7,7.628,7.628,0,0,1-6.422-10.966Z" transform="translate(-3323 491.998)" fill="#c09a2d"/>
    <path id="Path_428" data-name="Path 428" d="M1190.524,550.732c-5.152-4.957-8.024-13.06-8.024-21.753,0-8.733,2.872-17.191,8.615-22.344h5.546v.512c-5.979,5.664-8.851,13.964-8.851,21.832a30.53,30.53,0,0,0,8.261,21.2v.551Z" transform="translate(-3323 491.998)" fill="#fff"/>
    <path id="Path_429" data-name="Path 429" d="M1216.917,537.751h-10.936l-1.809,5.232h-5.784l9.874-27.5h6.413l9.873,27.5h-5.822Zm-5.468-15.892-3.974,11.486h7.947Z" transform="translate(-3323 491.998)" fill="#fff"/>
    <path id="Path_430" data-name="Path 430" d="M1236.778,520.836a8.618,8.618,0,0,1,7.2,3.462V521.19h5.547v21.793h-5.547V539.8a8.6,8.6,0,0,1-7.238,3.54c-5.507,0-9.913-4.524-9.913-11.329s4.406-11.172,9.952-11.172m1.417,4.839c-2.951,0-5.744,2.2-5.744,6.333s2.793,6.491,5.744,6.491c3.028,0,5.782-2.282,5.782-6.412s-2.754-6.412-5.782-6.412" transform="translate(-3323 491.998)" fill="#fff"/>
    <path id="Path_431" data-name="Path 431" d="M1260.416,542.983h-5.508V521.19h5.508v3.383a7.558,7.558,0,0,1,6.687-3.7v5.782h-1.456c-3.264,0-5.231,1.259-5.231,5.468Z" transform="translate(-3323 491.998)" fill="#fff"/>
    <path id="Path_432" data-name="Path 432" d="M1279.375,520.836a8.945,8.945,0,0,1,7.12,3.383V513.874h5.586v29.109h-5.586v-3.225a8.238,8.238,0,0,1-7.16,3.579c-5.546,0-9.952-4.524-9.952-11.329s4.406-11.172,9.992-11.172m1.377,4.839c-2.951,0-5.744,2.2-5.744,6.333s2.793,6.491,5.744,6.491c3.028,0,5.782-2.282,5.782-6.412s-2.754-6.412-5.782-6.412" transform="translate(-3323 491.998)" fill="#fff"/>
    <path id="Path_433" data-name="Path 433" d="M1296.05,550.732v-.551a30.527,30.527,0,0,0,8.261-21.2c0-7.868-2.871-16.168-8.851-21.832v-.512h5.547c5.743,5.153,8.614,13.611,8.614,22.344,0,8.693-2.871,16.8-8.024,21.753Z" transform="translate(-3323 491.998)" fill="#fff"/>
    <path id="Path_434" data-name="Path 434" d="M1314.692,515.525h5.9l4.839,21.321,5.586-21.321h6.137l5.27,21.2,4.878-21.2h5.941l-7.671,27.458h-6.49l-5.154-19.551-5.389,19.551-6.451.039Z" transform="translate(-3323 491.998)" fill="#fff"/>
    <path id="Path_435" data-name="Path 435" d="M1365.352,520.836a8.619,8.619,0,0,1,7.2,3.462V521.19h5.547v21.793h-5.547V539.8a8.6,8.6,0,0,1-7.239,3.54c-5.506,0-9.912-4.524-9.912-11.329s4.406-11.172,9.951-11.172m1.418,4.839c-2.952,0-5.744,2.2-5.744,6.333s2.792,6.491,5.744,6.491c3.027,0,5.782-2.282,5.782-6.412s-2.755-6.412-5.782-6.412" transform="translate(-3323 491.998)" fill="#fff"/>
    <path id="Path_436" data-name="Path 436" d="M1388.991,542.983h-5.508V521.19h5.508v3.383a7.558,7.558,0,0,1,6.687-3.7v5.782h-1.456c-3.264,0-5.231,1.259-5.231,5.468Z" transform="translate(-3323 491.998)" fill="#fff"/>
    <path id="Path_437" data-name="Path 437" d="M1429.859,530.946c0-3.462-1.927-5.271-4.838-5.271-2.95,0-4.878,1.809-4.878,5.271v12.037h-5.507V530.946c0-3.462-1.927-5.271-4.839-5.271-2.989,0-4.917,1.809-4.917,5.271v12.037h-5.507V521.19h5.507v2.636a7.935,7.935,0,0,1,6.413-2.95,8.341,8.341,0,0,1,7.67,4.169,8.63,8.63,0,0,1,7.474-4.169c5.232,0,8.93,3.3,8.93,9.322v12.785h-5.508Z" transform="translate(-3323 491.998)" fill="#fff"/>
    <path id="Path_438" data-name="Path 438" d="M1441.459,525.714h-2.6V521.19h2.6V515.8h5.546v5.389h4.878v4.524h-4.878v10.542c0,1.456.59,2.085,2.321,2.085h2.557v4.642h-3.462c-4.169,0-6.962-1.77-6.962-6.766Z" transform="translate(-3323 491.998)" fill="#fff"/>
    <path id="Path_439" data-name="Path 439" d="M1465.373,543.337c-6.333,0-10.935-4.406-10.935-11.251,0-6.883,4.483-11.25,10.935-11.25,6.293,0,10.739,4.288,10.739,10.778a12.87,12.87,0,0,1-.157,2.125h-15.932a5.1,5.1,0,0,0,5.232,5.035,4.491,4.491,0,0,0,4.367-2.636h5.939c-1.18,4.012-4.8,7.2-10.188,7.2m-5.31-13.3h10.345c-.078-2.872-2.36-4.681-5.193-4.681a5.06,5.06,0,0,0-5.152,4.681" transform="translate(-3323 491.998)" fill="#fff"/>
    <rect id="Rectangle_160" data-name="Rectangle 160" width="16.679" height="4.642" transform="translate(-1842.8 1018.616)" fill="#fff"/>
    <path id="Path_440" data-name="Path 440" d="M1258.7,572.269c5.586,0,9.952,4.366,9.952,11.171s-4.366,11.33-9.952,11.33a8.9,8.9,0,0,1-7.2-3.462V604.8H1246V572.623h5.508v3.147a8.7,8.7,0,0,1,7.2-3.5m-1.455,4.838c-2.95,0-5.743,2.282-5.743,6.412s2.793,6.412,5.743,6.412c2.989,0,5.782-2.36,5.782-6.491s-2.793-6.333-5.782-6.333" transform="translate(-3323 491.998)" fill="#fff"/>
    <path id="Path_441" data-name="Path 441" d="M1278.174,594.416h-5.508V572.623h5.508v3.383a7.558,7.558,0,0,1,6.687-3.7v5.782h-1.456c-3.264,0-5.231,1.259-5.231,5.468Z" transform="translate(-3323 491.998)" fill="#fff"/>
    <path id="Path_442" data-name="Path 442" d="M1298.233,594.77c-6.294,0-11.054-4.405-11.054-11.25,0-6.885,4.917-11.251,11.211-11.251s11.211,4.366,11.211,11.251c0,6.845-5.035,11.25-11.368,11.25m0-4.8c2.91,0,5.7-2.123,5.7-6.45,0-4.366-2.714-6.452-5.625-6.452s-5.546,2.086-5.546,6.452c0,4.327,2.518,6.45,5.468,6.45" transform="translate(-3323 491.998)" fill="#fff"/>
    <path id="Path_443" data-name="Path 443" d="M1319.157,572.623v25.372c0,5.035-2.714,6.806-6.924,6.806h-2.439V600.12h1.574c1.691,0,2.281-.63,2.281-2.085V572.623Zm-6.136-5.822a3.386,3.386,0,1,1,3.422,3.226,3.24,3.24,0,0,1-3.422-3.226" transform="translate(-3323 491.998)" fill="#fff"/>
    <path id="Path_444" data-name="Path 444" d="M1334.1,594.77c-6.333,0-10.936-4.406-10.936-11.251,0-6.883,4.484-11.25,10.936-11.25,6.294,0,10.739,4.288,10.739,10.778a12.883,12.883,0,0,1-.157,2.125h-15.932a5.1,5.1,0,0,0,5.232,5.035,4.49,4.49,0,0,0,4.367-2.636h5.939c-1.18,4.013-4.8,7.2-10.188,7.2m-5.31-13.3h10.345c-.078-2.872-2.36-4.681-5.193-4.681a5.061,5.061,0,0,0-5.152,4.681" transform="translate(-3323 491.998)" fill="#fff"/>
    <path id="Path_445" data-name="Path 445" d="M1358.213,572.269c5.429,0,9.087,2.833,10.268,7.71h-5.941a4.281,4.281,0,0,0-4.366-3.029c-3.068,0-5.113,2.321-5.113,6.569s2.045,6.531,5.113,6.531a4.156,4.156,0,0,0,4.366-2.99h5.941c-1.181,4.642-4.839,7.71-10.268,7.71-6.294,0-10.778-4.406-10.778-11.251s4.484-11.25,10.778-11.25" transform="translate(-3323 491.998)" fill="#fff"/>
    <path id="Path_446" data-name="Path 446" d="M1373.4,577.147h-2.6v-4.524h2.6v-5.389h5.545v5.389h4.878v4.524h-4.878v10.542c0,1.456.591,2.085,2.321,2.085h2.557v4.642h-3.462c-4.168,0-6.961-1.77-6.961-6.766Z" transform="translate(-3323 491.998)" fill="#fff"/>
    <path id="Path_447" data-name="Path 447" d="M1397.309,594.77c-6.333,0-10.936-4.406-10.936-11.251,0-6.883,4.484-11.25,10.936-11.25,6.293,0,10.739,4.288,10.739,10.778a12.87,12.87,0,0,1-.157,2.125h-15.932a5.1,5.1,0,0,0,5.232,5.035,4.491,4.491,0,0,0,4.367-2.636h5.939c-1.18,4.013-4.8,7.2-10.188,7.2m-5.311-13.3h10.346c-.078-2.872-2.36-4.681-5.193-4.681a5.061,5.061,0,0,0-5.153,4.681" transform="translate(-3323 491.998)" fill="#fff"/>
    <path id="Path_448" data-name="Path 448" d="M1427.32,582.379c0-3.5-1.928-5.389-4.839-5.389-2.989,0-4.917,1.888-4.917,5.389v12.037h-5.508V572.623h5.508v2.714a8.142,8.142,0,0,1,6.569-3.028c5.075,0,8.694,3.3,8.694,9.322v12.785h-5.507Z" transform="translate(-3323 491.998)" fill="#fff"/>
    <path id="Path_449" data-name="Path 449" d="M1343.609,383.347a41.363,41.363,0,1,0,41.365,41.363,41.362,41.362,0,0,0-41.365-41.363Zm-19.336,9.867,4.1,4.1v2.551l-3.715,3.715a2.174,2.174,0,0,0-.638,1.54v4.354a2.17,2.17,0,0,0,.638,1.54l4.992,4.992-4.354,4.354h-9.076l-3.471-3.468-3.255-6.507a37.21,37.21,0,0,1,14.783-17.167m-2.814,61.079,1.918-1.918a2.179,2.179,0,0,0,.639-1.54V445.2l7.433-7.433h6.905l9.609,9.609v3.452a2.174,2.174,0,0,0,.638,1.54l4.354,4.354a2.179,2.179,0,0,0,1.54.638h6.493a36.792,36.792,0,0,1-39.529-3.074Zm45.949-1.28H1355.4l-3.077-3.079v-3.453a2.179,2.179,0,0,0-.639-1.54l-10.892-10.892a2.178,2.178,0,0,0-1.54-.638h-8.7a2.178,2.178,0,0,0-1.54.638l-8.708,8.708a2.178,2.178,0,0,0-.638,1.54v5.63l-1.54,1.54a36.625,36.625,0,0,1-10.526-35.141l1.41,2.829a2.253,2.253,0,0,0,.408.565l4.354,4.354a2.176,2.176,0,0,0,1.54.632H1326.2a2.17,2.17,0,0,0,1.54-.638l6.523-6.532a2.179,2.179,0,0,0,0-3.077l-5.894-5.894v-2.55l3.716-3.716a2.178,2.178,0,0,0,.638-1.54v-4.351a2.177,2.177,0,0,0-.638-1.54l-3.806-3.806a36.731,36.731,0,0,1,15.327-3.364,37.507,37.507,0,0,1,4.354.278v6.263a2.174,2.174,0,0,0,.638,1.54l3.716,3.716v7.8a2.17,2.17,0,0,0,.638,1.54l8.069,8.07v2.55l-8.066,8.06a2.178,2.178,0,0,0-.638,1.54v4.36a2.17,2.17,0,0,0,.638,1.54l8.708,8.708a2.177,2.177,0,0,0,1.231.605l11.043,1.579a37.267,37.267,0,0,1-6.529,7.152Zm8.989-11.194-12.169-1.743-7.564-7.564v-2.55l8.069-8.069a2.179,2.179,0,0,0,.639-1.54V416a2.175,2.175,0,0,0-.639-1.54l-8.069-8.069v-7.806a2.174,2.174,0,0,0-.638-1.54l-3.706-3.716v-4.538a36.913,36.913,0,0,1,24.08,53.023Z" transform="translate(-3323 491.998)" fill="#fff"/>
    <path id="Path_450" data-name="Path 450" d="M1410.461,403.578l-10.892-10.891a2.179,2.179,0,0,0-3.077,0L1385.6,403.578a2.179,2.179,0,0,0,1.541,3.716h4.354v17.415a2.177,2.177,0,0,0,2.177,2.178h8.708a2.178,2.178,0,0,0,2.178-2.178V407.294h4.354a2.179,2.179,0,0,0,1.541-3.716Zm-8.071-.632a2.179,2.179,0,0,0-2.179,2.179v17.416h-4.345V405.115a2.177,2.177,0,0,0-2.178-2.177h-1.277l5.631-5.631,5.625,5.639Z" transform="translate(-3323 491.998)" fill="#fff"/>
    <path id="Path_451" data-name="Path 451" d="M1290.725,392.693a2.177,2.177,0,0,0-3.077,0l-10.892,10.891a2.179,2.179,0,0,0,1.54,3.717h4.36v17.414a2.178,2.178,0,0,0,2.179,2.178h8.7a2.178,2.178,0,0,0,2.178-2.178V407.294h4.354a2.179,2.179,0,0,0,1.54-3.716Zm2.814,10.247a2.179,2.179,0,0,0-2.178,2.179v17.414h-4.345V405.115a2.177,2.177,0,0,0-2.178-2.177h-1.28l5.63-5.631,5.628,5.64Z" transform="translate(-3323 491.998)" fill="#fff"/>
    <rect id="Rectangle_161" data-name="Rectangle 161" width="4.354" height="10.892" transform="translate(-2040.344 923.239)" fill="#fff"/>
    <rect id="Rectangle_162" data-name="Rectangle 162" width="4.354" height="17.415" transform="translate(-2031.636 923.239)" fill="#fff"/>
    <rect id="Rectangle_163" data-name="Rectangle 163" width="4.354" height="10.892" transform="translate(-1922.786 923.239)" fill="#fff"/>
    <rect id="Rectangle_164" data-name="Rectangle 164" width="4.354" height="17.415" transform="translate(-1931.493 923.239)" fill="#fff"/>
    <path id="Path_452" data-name="Path 452" d="M1343.612,357.221a8.708,8.708,0,1,0-8.708-8.707,8.707,8.707,0,0,0,8.708,8.707m0-13.061a4.354,4.354,0,1,1-4.354,4.354,4.354,4.354,0,0,1,4.354-4.354" transform="translate(-3323 491.998)" fill="#fff"/>
    <rect id="Rectangle_165" data-name="Rectangle 165" width="6.532" height="4.354" transform="translate(-1968.502 838.336)" fill="#fff"/>
    <rect id="Rectangle_166" data-name="Rectangle 166" width="6.532" height="4.354" transform="translate(-1996.803 838.336)" fill="#fff"/>
    <rect id="Rectangle_167" data-name="Rectangle 167" width="4.354" height="6.532" transform="translate(-1981.566 851.398)" fill="#fff"/>
    <rect id="Rectangle_168" data-name="Rectangle 168" width="4.354" height="6.532" transform="translate(-1981.566 823.097)" fill="#fff"/>
    <rect id="Rectangle_169" data-name="Rectangle 169" width="6.157" height="4.354" transform="translate(-1972.226 830.273) rotate(-45)" fill="#fff"/>
    <rect id="Rectangle_170" data-name="Rectangle 170" width="4.353" height="6.157" transform="translate(-1993.995 828.993) rotate(-45)" fill="#fff"/>
    <rect id="Rectangle_171" data-name="Rectangle 171" width="4.354" height="6.157" transform="translate(-1972.229 850.765) rotate(-44.99)" fill="#fff"/>
    <rect id="Rectangle_172" data-name="Rectangle 172" width="6.157" height="4.354" transform="translate(-1993.998 852.036) rotate(-45)" fill="#fff"/>
    <path id="Path_453" data-name="Path 453" d="M1315.311,373.735a7.433,7.433,0,0,0,0,10.511l2.814,2.814,3.077-3.077-2.814-2.814a3.081,3.081,0,0,1,0-4.354l1.277-1.277a7.435,7.435,0,0,0,0-10.511l-2.814-2.813-3.08,3.08,2.814,2.813a3.081,3.081,0,0,1,0,4.354Z" transform="translate(-3323 491.998)" fill="#fff"/>
    <path id="Path_454" data-name="Path 454" d="M1304.425,371.556a7.434,7.434,0,0,0,0,10.512l2.814,2.812,3.077-3.076-2.814-2.814a3.08,3.08,0,0,1,0-4.354l1.277-1.277a7.434,7.434,0,0,0,0-10.51l-2.814-2.814-3.08,3.08,2.814,2.813a3.081,3.081,0,0,1,0,4.354Z" transform="translate(-3323 491.998)" fill="#fff"/>
    <path id="Path_455" data-name="Path 455" d="M1368.833,376.818a3.079,3.079,0,0,1,0,4.354l-2.814,2.814,3.077,3.077,2.814-2.814a7.433,7.433,0,0,0,0-10.511l-1.277-1.277a3.081,3.081,0,0,1,0-4.354l2.814-2.813-3.074-3.077-2.814,2.814a7.434,7.434,0,0,0,0,10.51Z" transform="translate(-3323 491.998)" fill="#fff"/>
    <path id="Path_456" data-name="Path 456" d="M1381.522,370.286a3.079,3.079,0,0,1,0-4.354l2.814-2.814-3.077-3.08-2.814,2.814a7.433,7.433,0,0,0,0,10.511l1.277,1.277a3.081,3.081,0,0,1,0,4.354l-2.814,2.813,3.077,3.077,2.814-2.813a7.435,7.435,0,0,0,0-10.511Z" transform="translate(-3323 491.998)" fill="#fff"/>
  </g>
</svg>
