<svg xmlns="http://www.w3.org/2000/svg" width="585.299" height="680.353" viewBox="0 0 585.299 680.353">
  <g id="Group_37" data-name="Group 37" transform="translate(2232.291 -1159.422)">
    <path id="Path_457" data-name="Path 457" d="M1658.56,667.424q3.188,15.395,5.8,30.9,3.967,23.655,6.587,47.46a842.316,842.316,0,0,1-28.665,328.054c-.411,1.413-.824,2.8-1.25,4.2q-1.911,6.341-3.9,12.649a841.928,841.928,0,0,1-102.824,213.92c-1.231,1.832-2.462,3.664-3.721,5.5-2.5,3.712-5.061,7.373-7.639,11.022q-9.489,13.536-19.539,26.653l-165.736-132.164a22.713,22.713,0,0,0-27.131-.813,22.36,22.36,0,0,0-4.7,4.414c-4.091,5.129-5.6,12.828-4.025,20.606a38.551,38.551,0,1,1-38.733-30.887c7.933-.2,15.1-3.381,19.193-8.51a22.384,22.384,0,0,0,3.258-5.562,22.708,22.708,0,0,0-6.816-26.257l-188.019-149.933A308.88,308.88,0,0,0,1139.5,913.024c.336-1.319.655-2.649.962-3.965q.3-1.293.606-2.588c.737-3.3,1.416-6.62,2.055-9.922a308.713,308.713,0,0,0,.933-111.682l200.394-45.739a7.646,7.646,0,0,1,9.262,8.691,71.13,71.13,0,1,0,141.006,7.691,73.643,73.643,0,0,0-1.645-11.058,70.73,70.73,0,0,0-11.616-25.788,7.627,7.627,0,0,1,4.57-11.858Z" transform="translate(-3323 491.998)" fill="#75813d"/>
    <path id="Path_458" data-name="Path 458" d="M1293.763,1074.151c-5.152-4.956-8.024-13.06-8.024-21.753,0-8.733,2.872-17.19,8.615-22.344h5.546v.512c-5.979,5.664-8.851,13.965-8.851,21.832a30.53,30.53,0,0,0,8.261,21.2v.551Z" transform="translate(-3323 491.998)" fill="#fff"/>
    <path id="Path_459" data-name="Path 459" d="M1327.394,1052.712c0,8.3-5.7,13.69-14.477,13.69h-9.6v-27.457h9.6c8.773,0,14.477,5.428,14.477,13.767m-14.673,9.009c5.782,0,9.047-3.3,9.047-9.009s-3.265-9.126-9.047-9.126h-3.895v18.135Z" transform="translate(-3323 491.998)" fill="#fff"/>
    <path id="Path_460" data-name="Path 460" d="M1352.094,1066.4h-5.547v-2.754a8.034,8.034,0,0,1-6.491,3.029c-5.074,0-8.733-3.3-8.733-9.283v-12.785h5.507v12c0,3.5,1.928,5.39,4.839,5.39,2.989,0,4.878-1.889,4.878-5.39v-12h5.547Z" transform="translate(-3323 491.998)" fill="#fff"/>
    <path id="Path_461" data-name="Path 461" d="M1378.092,1066.4h-5.547v-2.754a8.034,8.034,0,0,1-6.491,3.029c-5.074,0-8.733-3.3-8.733-9.283v-12.785h5.507v12c0,3.5,1.928,5.39,4.839,5.39,2.989,0,4.878-1.889,4.878-5.39v-12h5.547Z" transform="translate(-3323 491.998)" fill="#fff"/>
    <path id="Path_462" data-name="Path 462" d="M1389.024,1066.4h-5.508v-21.793h5.508v3.383a7.558,7.558,0,0,1,6.687-3.7v5.782h-1.456c-3.264,0-5.231,1.259-5.231,5.468Z" transform="translate(-3323 491.998)" fill="#fff"/>
    <path id="Path_463" data-name="Path 463" d="M1414.04,1049.054l-9.6,12.824h9.717v4.524h-15.971v-4.446l9.52-12.823h-9.48v-4.524h15.813Z" transform="translate(-3323 491.998)" fill="#fff"/>
    <path id="Path_464" data-name="Path 464" d="M1426.939,1044.256a8.617,8.617,0,0,1,7.2,3.461v-3.107h5.547V1066.4h-5.547v-3.187a8.592,8.592,0,0,1-7.238,3.541c-5.507,0-9.913-4.524-9.913-11.329s4.406-11.172,9.952-11.172m1.417,4.838c-2.951,0-5.743,2.2-5.743,6.334s2.792,6.49,5.743,6.49c3.028,0,5.782-2.281,5.782-6.412s-2.754-6.412-5.782-6.412" transform="translate(-3323 491.998)" fill="#fff"/>
    <path id="Path_465" data-name="Path 465" d="M1475.557,1054.365c0-3.462-1.927-5.271-4.838-5.271-2.95,0-4.878,1.809-4.878,5.271V1066.4h-5.507v-12.037c0-3.462-1.927-5.271-4.839-5.271-2.989,0-4.917,1.809-4.917,5.271V1066.4h-5.507v-21.793h5.507v2.636a7.935,7.935,0,0,1,6.413-2.95,8.34,8.34,0,0,1,7.67,4.17,8.628,8.628,0,0,1,7.474-4.17c5.232,0,8.93,3.3,8.93,9.323V1066.4h-5.508Z" transform="translate(-3323 491.998)" fill="#fff"/>
    <path id="Path_466" data-name="Path 466" d="M1495.81,1066.757c-6.333,0-10.936-4.406-10.936-11.251,0-6.884,4.484-11.25,10.936-11.25,6.294,0,10.739,4.287,10.739,10.778a12.866,12.866,0,0,1-.157,2.124H1490.46a5.1,5.1,0,0,0,5.232,5.035,4.491,4.491,0,0,0,4.367-2.635H1506c-1.18,4.012-4.8,7.2-10.188,7.2m-5.31-13.3h10.345c-.078-2.871-2.36-4.681-5.193-4.681a5.061,5.061,0,0,0-5.152,4.681" transform="translate(-3323 491.998)" fill="#fff"/>
    <path id="Path_467" data-name="Path 467" d="M1509.141,1074.151v-.551a30.526,30.526,0,0,0,8.261-21.2c0-7.867-2.871-16.168-8.851-21.832v-.512h5.547c5.743,5.154,8.614,13.611,8.614,22.344,0,8.693-2.871,16.8-8.024,21.753Z" transform="translate(-3323 491.998)" fill="#fff"/>
    <path id="Path_468" data-name="Path 468" d="M1293.627,1094.824H1283.2v6.885h9.244v4.366H1283.2v7.277h10.424v4.485h-15.932v-27.5h15.932Z" transform="translate(-3323 491.998)" fill="#fff"/>
    <path id="Path_469" data-name="Path 469" d="M1313.884,1105.8c0-3.5-1.928-5.39-4.839-5.39-2.989,0-4.917,1.889-4.917,5.39v12.037h-5.508v-21.793h5.508v2.715a8.137,8.137,0,0,1,6.569-3.029c5.075,0,8.694,3.3,8.694,9.323v12.784h-5.507Z" transform="translate(-3323 491.998)" fill="#fff"/>
    <path id="Path_470" data-name="Path 470" d="M1334.138,1118.191c-6.333,0-10.936-4.406-10.936-11.251,0-6.884,4.484-11.25,10.936-11.25,6.294,0,10.739,4.287,10.739,10.778a12.866,12.866,0,0,1-.157,2.124h-15.932a5.1,5.1,0,0,0,5.232,5.035,4.491,4.491,0,0,0,4.367-2.635h5.939c-1.18,4.012-4.8,7.2-10.188,7.2m-5.31-13.3h10.345c-.078-2.871-2.36-4.681-5.193-4.681a5.061,5.061,0,0,0-5.152,4.681" transform="translate(-3323 491.998)" fill="#fff"/>
    <path id="Path_471" data-name="Path 471" d="M1354.394,1117.837h-5.509v-21.793h5.509v3.383a7.557,7.557,0,0,1,6.686-3.7v5.782h-1.455c-3.265,0-5.231,1.259-5.231,5.468Z" transform="translate(-3323 491.998)" fill="#fff"/>
    <path id="Path_472" data-name="Path 472" d="M1373.311,1095.69a8.526,8.526,0,0,1,7.2,3.461v-3.107h5.547v21.95c0,5.9-3.619,10.582-10.778,10.582-6.137,0-10.425-3.069-10.976-8.065h5.468c.552,1.967,2.6,3.265,5.35,3.265,3.03,0,5.389-1.73,5.389-5.782v-3.383a8.6,8.6,0,0,1-7.2,3.58c-5.545,0-9.952-4.524-9.952-11.329s4.407-11.172,9.952-11.172m1.418,4.838c-2.952,0-5.745,2.2-5.745,6.334s2.793,6.49,5.745,6.49c3.027,0,5.781-2.281,5.781-6.412s-2.754-6.412-5.781-6.412" transform="translate(-3323 491.998)" fill="#fff"/>
    <path id="Path_473" data-name="Path 473" d="M1390.853,1090.222a3.387,3.387,0,1,1,3.382,3.226,3.229,3.229,0,0,1-3.382-3.226m.589,5.822h5.508v21.793h-5.508Z" transform="translate(-3323 491.998)" fill="#fff"/>
    <path id="Path_474" data-name="Path 474" d="M1411.9,1118.191c-6.333,0-10.936-4.406-10.936-11.251,0-6.884,4.484-11.25,10.936-11.25,6.293,0,10.739,4.287,10.739,10.778a12.866,12.866,0,0,1-.157,2.124h-15.932a5.1,5.1,0,0,0,5.232,5.035,4.492,4.492,0,0,0,4.367-2.635h5.939c-1.18,4.012-4.8,7.2-10.188,7.2m-5.311-13.3h10.346c-.078-2.871-2.36-4.681-5.193-4.681a5.062,5.062,0,0,0-5.153,4.681" transform="translate(-3323 491.998)" fill="#fff"/>
    <path id="Path_475" data-name="Path 475" d="M1441.278,1100.489l-9.6,12.824h9.717v4.524h-15.971v-4.446l9.52-12.823h-9.48v-4.524h15.813Z" transform="translate(-3323 491.998)" fill="#fff"/>
    <path id="Path_476" data-name="Path 476" d="M1454.178,1095.69a8.617,8.617,0,0,1,7.2,3.461v-3.107h5.547v21.793h-5.547v-3.187a8.593,8.593,0,0,1-7.238,3.541c-5.507,0-9.913-4.524-9.913-11.329s4.406-11.172,9.952-11.172m1.417,4.838c-2.951,0-5.743,2.2-5.743,6.334s2.792,6.49,5.743,6.49c3.028,0,5.782-2.281,5.782-6.412s-2.754-6.412-5.782-6.412" transform="translate(-3323 491.998)" fill="#fff"/>
    <path id="Path_477" data-name="Path 477" d="M1472.309,1088.727h5.508v16.561l7.316-9.245h7.159l-9.6,10.936,9.676,10.857h-7.159l-7.4-9.283v9.283h-5.508Z" transform="translate(-3323 491.998)" fill="#fff"/>
    <path id="Path_478" data-name="Path 478" d="M1504.8,1118.191c-6.333,0-10.936-4.406-10.936-11.251,0-6.884,4.484-11.25,10.936-11.25,6.294,0,10.739,4.287,10.739,10.778a12.866,12.866,0,0,1-.157,2.124h-15.932a5.1,5.1,0,0,0,5.232,5.035,4.491,4.491,0,0,0,4.367-2.635h5.939c-1.18,4.012-4.8,7.2-10.188,7.2m-5.31-13.3h10.345c-.078-2.871-2.36-4.681-5.193-4.681a5.061,5.061,0,0,0-5.152,4.681" transform="translate(-3323 491.998)" fill="#fff"/>
    <path id="Path_479" data-name="Path 479" d="M1534.81,1105.8c0-3.5-1.929-5.39-4.84-5.39-2.988,0-4.917,1.889-4.917,5.39v12.037h-5.507v-21.793h5.507v2.715a8.139,8.139,0,0,1,6.57-3.029c5.075,0,8.694,3.3,8.694,9.323v12.784h-5.507Z" transform="translate(-3323 491.998)" fill="#fff"/>
    <path id="Path_480" data-name="Path 480" d="M1469.874,879.086a46.275,46.275,0,0,0-4.012-9.128,1.717,1.717,0,0,0-1.815-.768,46.283,46.283,0,0,0-9.343,3.485,26.828,26.828,0,0,0-13.388,12.771,24.735,24.735,0,0,0-.771,15.013,47.774,47.774,0,0,0-9-7.824,69.643,69.643,0,0,0-7.812-11.975,1.685,1.685,0,0,0-2.617,2.117,67.6,67.6,0,0,1,6.229,9.159l-15.355-2.992-14.592-19.9a23.736,23.736,0,0,1,4.254.432,29.12,29.12,0,0,1,13.167,6.789,1.686,1.686,0,1,0,2.188-2.565,32.429,32.429,0,0,0-14.707-7.531c-7.725-1.513-16.735.472-26.056,5.749a67.29,67.29,0,0,0-11.8,8.42,1.785,1.785,0,0,0-.2,2.314,68.844,68.844,0,0,0,7.564,11.87,52.758,52.758,0,0,0,7.969,8.19q-1.176.985-2.29,2.069a38.975,38.975,0,0,0,12.608,63.963,1.688,1.688,0,0,0,1.267-3.125,35.6,35.6,0,0,1-7.291-4.012,19,19,0,0,0-2.862-13.3c-.536-.832,1.061-4.1,2.018-6.051a31.633,31.633,0,0,0,2.475-6.051,4.617,4.617,0,0,0-1.64-5.053,12.436,12.436,0,0,0-4.009-1.776,8.627,8.627,0,0,1-2.2-.862A22.456,22.456,0,0,1,1375,923.87a28.827,28.827,0,0,0-3.056-5.067,35.858,35.858,0,0,1,10.641-14.021,29.478,29.478,0,0,0,14.2,5.28c-5.957,4.617-7.884,10.511-5.143,16.174,3.216,6.611,9.839,5.555,15.681,4.626,1.011-.16,2.057-.326,3.059-.453.375-.049.49.054.566.121,1.279,1.137,1.24,6.571,1.21,10.541-.036,5.488-.073,10.674,1.973,13.336a5.141,5.141,0,0,0,4.235,2.052,8.5,8.5,0,0,0,3.328-.754c5.086-2.178,10.369-8.731,9.564-13.917-.7-4.539-1.171-7.528-.072-9.942,1.016-2.233,3.473-4.3,8.311-6.944a35.6,35.6,0,0,1-38.685,43.1,1.688,1.688,0,0,0-.369,3.352A38.955,38.955,0,0,0,1426,899.981c2.227-1.589,3.885-2.962,4.807-3.758a44.76,44.76,0,1,1-70.214,29.109,1.688,1.688,0,0,0-3.328-.551,48.107,48.107,0,0,0,39.611,55.312l.024,0a48.83,48.83,0,0,0,7.945.654,48.149,48.149,0,0,0,44.037-67.334,48.517,48.517,0,0,0,7.773-3.062,23.257,23.257,0,0,0,13.215-31.269m-97.846,46.355a21.009,21.009,0,0,0,3.673,5.658,9.688,9.688,0,0,0,3.373,1.512c3.3,1.014,3.68,1.513,3.362,2.814a29.485,29.485,0,0,1-2.227,5.364c-1.743,3.561-3.385,6.926-1.815,9.355a16.036,16.036,0,0,1,2.55,8.944,35.934,35.934,0,0,1-10.4-36.367c.494.85,1.02,1.836,1.486,2.72m81.563-33.142-4.8-11.6a31.548,31.548,0,0,1,7.34-4.977,44.916,44.916,0,0,1,5.328-2.242Zm10.983-17.521a45.321,45.321,0,0,1,2.117,5.391,32.224,32.224,0,0,1,1.513,8.127l-11.222,4.644Zm-20.154,11.978a16.106,16.106,0,0,1,1.882-3.274l5.446,13.216-4.9,11.7a44.757,44.757,0,0,1-2.185-5.552,24.12,24.12,0,0,1-.248-16.093m10.8,20.55a44.938,44.938,0,0,1-5.159,2.184l5.083-12.141,12.928-5.335a16.283,16.283,0,0,1-1.128,4.26,24.118,24.118,0,0,1-11.727,11.032Zm-60.79-.96c-.6-.117-1.183-.26-1.764-.42l18.659-13.676,15.364,3c-5.6,4.405-19.219,13.657-32.262,11.1ZM1377.389,895.8a65.6,65.6,0,0,1-8.6-11.845l19.551,3.807Zm3.443-22.492L1389,884.466l-19.666-3.837a66.56,66.56,0,0,1,11.5-7.322m13.059,12.1-9.918-13.522a37.928,37.928,0,0,1,9.421-2.607l13.718,18.709Zm-1.05,3.231,13.981,2.723-17.936,13.161a34.872,34.872,0,0,1-9.094-6.308Zm45.743,32.924c-6.078,3.237-9.052,5.782-10.465,8.883-1.513,3.328-.962,6.907-.191,11.857.454,2.92-3.026,8.354-7.564,10.287-1.682.72-2.88.635-3.561-.254-1.34-1.743-1.3-7.019-1.274-11.258.04-5.864.076-10.929-2.344-13.083a3.978,3.978,0,0,0-3.22-.95c-1.059.133-2.136.3-3.173.469-6.2.987-10.1,1.383-12.1-2.771-3.273-6.726,3.353-11.709,6.354-13.539a10.717,10.717,0,0,0,1.7-1.3,49.021,49.021,0,0,0,20.211-7.867,35.786,35.786,0,0,1,15.627,19.527" transform="translate(-3323 491.998)" fill="#fff"/>
  </g>
</svg>
