<svg viewBox="0 0 63 88" xmlns="http://www.w3.org/2000/svg" >
  <path fill="white" d="M3 0h57a3 3 0 0 1 3 3v82a3 3 0 0 1-3 3H3a3 3 0 0 1-3-3V3a3 3 0 0 1 3-3zm0 0"/>
  <path d="M53 83.2V83h.3c.6 0 1 0 1-.3l.1-3c0-3.2 0-3 .2-3.4l.3-.3c.5-.6 1.3-.8 2.7-.9h.5v.4h-.3c-.7 0-1.1.2-1.4.5a1 1 0 0 0-.3.3l-.1 3.3v3l.2.3.8.1h.4v.4H53v-.2zm-14.3-5.7c-.9-.1-1.6-.8-1.8-1.6v-1.6a2.3 2.3 0 0 1 1.8-1.3v-.4a20 20 0 0 0-2.3-5.4c-1-1.4-1.2-1.7-1.4-1.5l-.2.1-2 4a11.6 11.6 0 0 0-1.2 3.8l-.1-.7c-.2-1-.4-1.7-.9-2.8a223.6 223.6 0 0 0-2.4-4.5l-.4.2-1 1.4c-1 1.7-1.3 2.4-1.9 4.2l-.4 1.6h.2l.9.6c1.1 1 .8 3-.6 3.7-.9.4-1.9.2-2.6-.5l-.5-1v-1.1c.2-.8.6-1.3 1.3-1.6l.8-.1h.3a50.5 50.5 0 0 0-.9-3.9 10 10 0 0 1 .3-5.3v-.4l-.3.2-1 .4-3 1.6a8.6 8.6 0 0 0-2.2 2v-.3c0-.4.2-1 .5-1.7.3-.8.8-1.6 2.1-3.4l1-1.4-.2-.1-.2-.1-.3.1-5.3 2.5-.9.4.2.2.5.6c.3.6.3 1.4 0 2a2.2 2.2 0 0 1-3.5.8c-.3-.3-.6-.7-.7-1.2v-1.2c.2-.8.9-1.5 1.7-1.6a2.6 2.6 0 0 1 1 0l.7.3 2.5-3.8a12 12 0 0 1 2.3-2.3 9.6 9.6 0 0 1 3.8-1.7 4.8 4.8 0 0 1 1.7 0v-.1a27.5 27.5 0 0 1-2.5-10.4c0-1.3-.2-1.9-.5-3-.5-2.1-1.5-4.6-2.4-6.2a7.8 7.8 0 0 0-4-3.8 7 7 0 0 0-4-.5 5 5 0 0 0-2 1c-.5.5-1 1.1-1.4 2.2a188.7 188.7 0 0 1 0 .7c.3 0 .7.3 1 .5.4.5.6 1.3.4 2-.2.6-.7 1-1.3 1.2h-.7c-.6 0-1.1-.4-1.4-1-.2-.3-.2-.5-.2-.8V37c.3-.8.9-1.3 1.7-1.4H7v-.2l.2-1.1c.3-1 .7-1.7 1.6-2.5.6-.6 1.3-1 2-1.3a11 11 0 0 1 4.8-1l2.3.1a31.5 31.5 0 0 1 5 1.4c.2 0 .2 0 .2-.2l.5-.4h.7l.4-.5.5-.6.3-.3h.2v-.1l-.2-.6a6.4 6.4 0 0 1-.5-3.5c.2-1.8 1-3.6 2-5.3a21 21 0 0 1 5.4-4.9c1.5-1 2.3-1.4 3-1.4.5 0 1 .1 1.5.5.3.2.6.4 1 1a10 10 0 0 1 2.4 3.2c.6 1.4 1 2.9 1 4.3a46 46 0 0 1 0 5.2c.5.3.8.8.8 1.3a2 2 0 0 1-.7 1.7c-.3.3-.7.4-1 .4H40c0 .2.1.2.2.2l.4-.2c2.3-.7 4.3-1.2 6-1.3h2a9.2 9.2 0 0 1 6.6 3.2 5 5 0 0 1 1 2.4v.4h.3l.4.1a1.9 1.9 0 0 1 1.3 2.3 2 2 0 0 1-1.1 1.3l-.7.2c-.6 0-1.1-.3-1.5-.8a2 2 0 0 1-.1-2c.2-.5.7-.8 1.1-1h.2l-.6-1.3-.8-1.3a4.7 4.7 0 0 0-2.5-1.3c-1.5-.3-3.4.1-4.9 1-1.5 1-2.7 2.5-3.8 5.2a29 29 0 0 0-2 7.2v1.3a32.5 32.5 0 0 1-2.4 9.3h1.6c1 .2 2 .6 3 1.1 1.1.7 2.3 1.7 3.2 3a36.3 36.3 0 0 1 2.4 3.7l.2-.1c.5-.2 1-.3 1.6-.1.8.2 1.3.8 1.5 1.6l.1.6v.6c-.4 1-1.4 1.8-2.5 1.7-.5 0-1-.3-1.3-.7-.3-.3-.5-.6-.6-1v-1.2c.1-.5.4-1 .8-1.2v-.1a63.7 63.7 0 0 0-6.7-2.8l1.2 1.8c1.2 1.7 1.7 2.6 2 3.6.3.6.4 1.4.3 1.4l-.1-.2a7 7 0 0 0-1.3-1.2c-1-.7-2-1.3-3.6-2a41 41 0 0 1-1.5-.8v.3c.3.8.4 1.5.5 2.1v2.5l-1.1 4.6h.2l1.3.5.8 1 .1.9v.6c-.2.4-.4.8-.7 1-.5.5-1.2.8-2 .6zm.7-.6.3-.2-.2.2-.3.3h.2l.4-.3.3-.3-.2.3-.3.2h.2c.1 0 .2 0 .5-.4l.5-.5c.2 0 .2-.2.3-.5v-1a2 2 0 0 0-2.5-1.4c-.4 0-.5.2-.7.5l-.3.3-.3.5h.2l.1-.2s0 .2-.2.3l-.2.3v.1l.2-.1c.1-.2.2-.2.2-.1l-.2.2-.2.2v.1l.2-.1.2-.1-.2.2-.1.2v.1l.2-.1.2-.1-.2.2-.2.2.1.1.2-.1.2-.2-.2.2c-.1.2-.2.2-.1.3l.2-.1.2-.2-.1.3-.2.1v.1l.3-.1.2-.2-.2.2-.1.2v.1l.3-.1c.3-.3.3-.3 0 0l-.2.2.1.1.3-.2.3-.2-.2.2-.3.3h.1l.3-.2.3-.2-.2.3-.3.2h.2l.3-.2.3-.2-.3.3-.2.2h.2l.3-.2.3-.3-.2.3-.2.3.4-.3zm-.3-.5c-.7-.4-1-.7-1.1-1-.2-.5.1-.9.5-.9.2 0 .4.1.5.3.1-.3.3-.4.5-.5.2 0 .4 0 .6.2.2.3.2.8-.2 1.4l-.6.6-.2-.1zm-14.7.5.3-.3-.2.3-.3.3h.2l.4-.3.3-.3-.2.2-.3.3h.2c.2 0 .2 0 .5-.4l.5-.5c.1 0 .2-.1.2-.4l.2-.8a2 2 0 0 0-1.5-1.8h-.5l-.9.1-.3.3-.1.2-.3.3-.3.4v.2l.1-.2c.2-.1.2-.1.2 0l-.2.2-.2.1V75.1l.2-.1.1-.2-.1.3-.2.2c0 .2 0 .2.2 0 .1-.2.2-.2.2-.1l-.2.2-.1.2v.1l.2-.1.1-.1-.1.2-.2.1v.1l.1.1.2-.2.2-.1-.2.2-.2.2.1.1.2-.1.2-.2-.2.2-.1.2v.2l.3-.2.2-.2-.2.2-.2.2.1.1.3-.2.2-.2-.2.3-.2.2h.1l.3-.1.2-.2-.2.2-.2.2.2.1.2-.2.3-.2-.2.2-.2.2v.1h.1l.3-.2.3-.2-.3.2c0 .2-.2.3-.2.3h.2l.2-.2.4-.3-.3.3-.2.2h.2l.3-.2zm-.6-.4a30.5 30.5 0 0 1-.7-1.5l1.2-1 .4.6.4.8a12.3 12.3 0 0 1-1.3 1zm16.7.2.4-.5-.3.3-.4.4s.2 0 .3-.2zm-15 0 .3-.5-.5.6.2-.2zm-2.4-3.2-.4.3c-.2.2-.2.2.1 0l.3-.3zm15 0-.5.5.2-.2.2-.2zm-13.4-2.3.5-1.2a14.7 14.7 0 0 1 2.7-4.5c.3-.4.6-.6 1.5-1.1.6-.3 1-.7 1.4-1 .3-.2.4-.3.6-.7v-.5l.1-.2v-.1l-.2.2-.3.2.2-.3.3-.3c0-.1-.2 0-.4.3l-.4.3.3-.4c.5-.4.5-.5.3-.5l-.5.4-.5.5.4-.4.5-.5H31l-.5.4-.5.4.4-.4c.5-.5.5-.5.3-.5l-.5.5-.5.4.4-.5.4-.4c-.2 0-.2 0-.6.4l-.4.4.3-.4c.5-.5.5-.5.3-.5l-.5.4-.4.4.3-.4.4-.4h-.1l-.4.3-.5.4.4-.4.4-.4h-.2l-.4.3-.4.4.3-.4.4-.4h-.2l-.4.4-.5.4.3-.3.4-.4.1-.2H29l-.5.5-.6.5.4-.4a48.3 48.3 0 0 1 .5-.7l-.7.5a4103 4103 0 0 0-3.5 3.6l-1 1.2h-.1v.2l.5-.5 1.2-1.1-.9 1-.8.8v.2l.7-.7.7-.7-.8.8-.6.7V67.1l.6-.6a15.1 15.1 0 0 1 0 .1l-.6.6V67.5l.5-.6.5-.4-.5.6-.5.4v.2l.5-.4.4-.4-.5.5-.4.5v.2l.4-.4.4-.3-.4.4-.4.5c0 .2 0 .1.4-.2a11.9 11.9 0 0 1 .3-.3l-.3.4-.3.4v.1l.3-.3.3-.2-.3.3-.3.3v.2s.2 0 .3-.2l.3-.2-.3.3-.2.2v.2s.2 0 .3-.2l.2-.2-.1.2-.2.2-.1.2v.1l.2-.2c.2-.1.2-.1.2 0l-.2.1-.2.2v.2l.3-.1c.2-.3.2-.2 0 0l-.2.2v.2l.2-.2c.1 0 .2-.1.2 0l-.2.1-.1.2v.2l.2-.2h.1l-.1.1c-.1.2-.1.2 0 .2v.1l.2-.1-.1.1c-.1.1-.1.1 0 .2.2-.1.2 0 0 0v.2h.2v.1h.2zm14.1 0c.3-.3.6-1.4.9-2.6a8.6 8.6 0 0 0-.1-3.3c-.3-1.2-.7-2-1.5-2.8a7.8 7.8 0 0 0-2.2-2l-.4-.3-.2.1c-.8.5-1.7.9-2.8 1h-.1l-.3.4-.4.3V62.3l.3-.3.3-.2-.3.3-.2.3v.1l.3-.2.2-.2-.2.3-.3.2v.1h.1l.2-.1.3-.2-.2.3-.2.2v.1s.2 0 .3-.2l.2-.2-.2.3c-.2.2-.2.2-.1.3l.2-.2.2-.1-.2.2-.2.2h.1v.1l.3-.2.2-.1-.2.2-.2.2h.1l.3-.1.2-.2-.2.2-.2.2h.1v.1l.3-.2.2-.1-.2.2-.2.2h.1l.3-.1.2-.2-.1.2-.2.2.1.1.2-.2c.2-.2.3-.2 0 0l-.1.3h.1l.2-.1.2-.2-.1.2-.2.2h.1l.2-.1.2-.2-.1.2c-.2.2-.2.2-.1.3l.3-.2.2-.1-.2.2-.1.2h.1l.2-.1.2-.2-.1.2-.2.2H34.6l.2-.2-.1.1-.2.2.2.1.1-.2.2-.1-.1.2-.2.2h.1l.2-.1.2-.2v.2l-.3.2h.1v.1l.3-.2c.2-.2.2-.1 0 0l-.2.3H35.3l.2-.2-.1.2-.2.1.2.1.1-.1.2-.2-.1.2-.2.2.1.1.2-.1.2-.2-.1.2-.2.2.1.1.2-.2.2-.1-.2.2-.2.2.1.1.2-.1.2-.2-.1.2-.2.2v.1l.3-.1.2-.2-.2.2-.2.2.1.1.2-.1.2-.2-.1.2-.2.2v.1l.3-.1.1-.2-.1.3-.2.1v.1H36.7l.2-.2-.2.2-.1.2c0 .1.1 0 .2 0l.2-.2-.1.2-.2.2.1.1.2-.1.2-.2-.2.2-.2.2.1.2.2-.2.2-.2-.2.3-.1.1v.2l.2-.2.2-.1-.1.2-.2.2.1.1.1-.1.2-.2-.1.2-.2.2.1.1.2-.1.1-.1v.2l-.2.2h.2l.2-.2-.2.2-.1.2v.1l.2-.1c.1-.1.1-.2.2-.1l-.2.2v.2h.1l.2-.2-.1.2-.2.1v.2l.2-.1.2-.1-.1.2h-.2v.2h.2l.2-.1-.1.1-.2.2.1.1.1-.1c.1 0 .1-.1.2 0H38l-.2.2.1.2.1-.1c.1-.1.1-.1.1 0l-.2.2.1.1h.1l.1-.1v.1l-.2.1v.1l.1.1h.1v-.1V70.7h.2-.1v.2c0 .1 0 .1 0 0h.1v.2l.2.1h.1zm12.3-4 .3-.4-.2.3-.3.3h.1c.2 0 .2 0 .5-.3l.4-.4-.2.3-.3.3h.2l.5-.5a1.7 1.7 0 0 0 .6-1.4c0-.3 0-.5-.2-.8a2 2 0 0 0-3.6 0l.2-.1.1-.1-.2.3c-.2.1-.2.2-.2.3v.1l.1-.1.2-.2-.2.3-.2.2v.2l.2-.1.2-.2-.2.3c-.1.1-.2.1-.1.2 0 .2 0 .2.2 0l.1-.2-.1.3-.2.2v.1l.2-.1.2-.2-.1.2-.2.2v.2l.3-.2c.2-.3.3-.2 0 0l-.2.3.1.1.2-.2.3-.2-.2.3-.2.2v.1s.2 0 .3-.2l.2-.2-.1.2-.3.3h.2l.2-.2.3-.2-.3.3-.2.2.2.1.2-.2.3-.3-.2.3-.3.3h.1l.4-.2.3-.3-.3.3-.2.3.4-.2.4-.3-.3.3-.2.3h.1l.3-.3.4-.3-.3.3-.2.3c.2 0 .2 0 .5-.3zm0-.6-.1-.5h-.2c-.2.3-.5.4-.7.3-.3-.1-.4-.3-.3-.8l.3-1.3 1.3.5c.4.2.5.4.4.7 0 .2-.3.4-.5.4s-.2 0-.1.2l.3.2h.1l-.1.1-.3.2-.2.1zm-38.3.5.4-.3-.2.3-.3.2h.2l.3-.3.4-.2-.2.2-.3.3.4-.1.3-.3c0-.2.2-.3.3-.3a5.2 5.2 0 0 1-.4.4l.4-.3c.7-.8.7-2 0-2.8a2 2 0 0 0-2-.5c-.3 0-.3.1-.5.3l-.5.5-.3.4c0 .3 0 .3.1 0 .2-.1.3-.1.2 0l-.2.2-.2.3v.2l.2-.2c.1-.2.2-.2.2-.1l-.2.2-.2.3c0 .1 0 .1.2 0l.2-.2-.2.2-.2.2v.2l.3-.1.1-.2-.1.2-.2.2v.2l.3-.2c.1-.1.1-.2.2-.1l-.2.2-.2.2H11.3l.2-.2-.2.2-.1.2v.1l.3-.2.2-.2-.2.3-.2.2h.1l.2-.1.3-.2-.2.2-.2.2v.1h.1l.3-.2.2-.2-.2.3c-.2.2-.2.2 0 .3l.2-.2.3-.3-.2.3-.3.2h.1l.1.1.3-.2.2-.3-.2.3-.2.2h.2l.2-.2.3-.2-.2.2a4 4 0 0 0-.2.3h.2l.2-.2zm-.7-.7-.3-.2h.1c.2-.1.5-.3.4-.5h-.1c-.3 0-.6 0-.7-.2l-.1-.3V65c.3-.3.7-.4 1 0l.1.1v-.2c0-.2 0-.4.2-.5l.2-.2c.4 0 .7.2.7.6 0 .2-.2.4-.4.5l-.2.1h.2c.3 0 .5.3.5.6l-.1.4-.5.2c-.3-.1-.4-.3-.5-.6v-.1c-.2 0-.3.4-.2.6v.1l-.3-.1zM26.3 63a217.7 217.7 0 0 0 2.3-2.5h-.1L26 63.1a409.4 409.4 0 0 0-2.4 2.7v.1l.1-.2 2.6-2.6zm-.5.1 2.4-2.4.2-.2-.1-.1a174.5 174.5 0 0 0-2.5 2.7zm.2-.5a185.7 185.7 0 0 0 2.1-2.3h-.2a3185.9 3185.9 0 0 0-2 2.3zm0-.3a149.4 149.4 0 0 0 1.9-2.2l-2 2-1.9 2v.2l2-2zm-14.4 1.2-.5.5v.1l.2-.3.3-.3zM26 62zm0-.3.4-.4-.9.9.5-.5zm-9.6.3c.5-.1 1.3-.4 3-1.2a30.6 30.6 0 0 1 2.8-1l1.2-1.2 1.3-1.3.2-.3v-.2a76.8 76.8 0 0 0-.1-.1 78 78 0 0 0-.4 0l.3-.2c-.1-.1-.1-.1-.2 0a178 178 0 0 1-1.1 1l1.1-1.2v-.1a69.4 69.4 0 0 0-.3.1l.2-.2V56a77.2 77.2 0 0 0-.3-.1L22.6 57l1.1-1.2h-.2l-.8.8a9.5 9.5 0 0 1-1.5 1.5s.1-.3.9-1c.5-.6 1-1 1-1.2l.2-.1h-.2L22.1 57l-1.2 1.2.7-.8a32.5 32.5 0 0 0 1.3-1.5l-1.1 1a2075.7 2075.7 0 0 0 .6-1 43.2 43.2 0 0 0-.3.1H22l-1.2 1.2a14.8 14.8 0 0 1-1.1 1 2688.7 2688.7 0 0 1 2-2h-.2l-1.2 1.2-1.4 1.3a76.7 76.7 0 0 1 2.2-2.4h-.2l-1.3 1.4a19 19 0 0 1 1-1.2l-.3.1-1.5 1.6-1.9 1.9-.2.2.3-.3a290.6 290.6 0 0 0 2.9-3.1l-.3.1-1.1 1.1a2180 2180 0 0 1-2.8 3.2l.2-.2-.2.2-.2.4c0 .1 0 .2.2.3h.6zm31 0h.3c.3-.2.1-.8-.5-1.8l-1.3-1.6a9.6 9.6 0 0 0-4.5-2.5c-.6-.2-.9-.2-1.7-.2H39v.2a12.6 12.6 0 0 1-1.3 1.9l.2-.2-1 1.2-1 1 1-.8a70.2 70.2 0 0 1-.6.8h.2l.6-.6.5-.6-.4.6-.6.5H37l.5-.5.5-.5-.4.5-.4.4h.1l.6-.5.5-.4-.5.5-.3.3h.2l.5-.4.4-.4-.3.4-.3.3h.2l.4-.3.4-.4-.3.3-.3.4h.2l.3-.4.4-.3-.2.3-.3.3h.2l.3-.3c.4-.3.5-.3.1 0l-.2.3c.2 0 .2 0 .5-.3l.3-.2-.3.3-.2.2H39.8l.2-.2.2-.2-.1.2-.2.2h.2l.2-.2.2-.2-.1.2a1 1 0 0 0-.2.2h.1l.3-.1.2-.2-.1.2-.2.2h.1l.3-.1.2-.2-.1.2-.2.1H41.2l.2-.2v.2l-.2.1h.3l.2-.2-.1.1-.1.2H41.7c0-.2.1-.2.2-.2l-.1.1-.2.2.3-.1.2-.1v.1l-.2.2H42.2c0-.2.1-.2.2-.2l-.1.1-.2.2H42.4l.2-.2v.2h-.2v.1h.2l.2-.2v.1l-.1.2h.2l.2-.2v.2h-.2v.1h.2l.2-.1-.1.2h.2l.2-.1h-.1v.2h.2l.1-.1v.1l-.1.1H44v.1H44.3l-.2.1h.4v.2h.1l.2-.1-.1.1c.1.1.1.1.2 0 .1 0 .1 0 0 0v.1h.1c0 .1 0 .1.1 0h.1v.1c.1.1.1.1.2 0 .1 0 .1 0 0 0l.1.2h.2c.1.1.1.1.2 0h.1v.2h.5v.2h.2c0-.1.1-.1.1 0h.2c.1 0 .1 0 0 0h.1c.1.1.1.1.2 0zm-15.1-.6H31.9l-.1.4.2-.2.2-.2zm-.3 0zm-.6-.1v-.1h-.2v.1h.1zm.3 0 .1-.1H31.4v.2l.2-.1zm.4 0 .1-.1H31.8l-.1.2h.1l.2-.1zm.4-.1.1-.1h-.1l-.3.1v.1l.3-.1zm-1.4 0V61h-.2l-.1.2h.3zm1.6 0 .3-.1.2-.2h-.2c-.2 0-.2.1-.3.2-.1.2-.1.2 0 .2zm-2 0 .2-.1a49 49 0 0 1-.3 0v.1h.2zm-.2 0V61h-.2v.2h.2zm2.7 0 .4-.3.2-.3h-.2a1 1 0 0 0-.4.4l-.2.2h.2zm-3-.2.1-.1H30c-.2.2-.2.2 0 .2h.1zm3.5 0 .4-.3.6-.7a18 18 0 0 0-.5.4l-.7.7h.2zm-3.7 0v-.2h-.2l-.1.2H29.9zm-.3-.2.1-.1-.1-.1-.2.1v.2l.2-.1zm4.6 0 2.2-2.2a86.7 86.7 0 0 1-.8.5L34 61l.2-.1zm-4.8-.1v-.2l-.2.1-.1.2h.1l.2-.1zm-.3-.1c.2-.2.2-.2 0-.2H29l-.2.2.2.1.1-.1zm2.6-.2.3-.2h-.2l-.3.2-.2.3c.2 0 .2 0 .4-.3zm.4 0 .3-.3h-.1l-.4.3-.3.3h.2l.3-.3zm0 .3c.2 0 .2-.1.6-.5l.3-.3c-.3.1-.4.1-.7.4l-.3.4h.2zm-14.9-1.4zm14.2 1.1.2-.2h-.2l-.2.2-.2.2h.1l.3-.2zm-2.5 0 .1-.1-.4.2.1.1.2-.2zm2.2 0 .2-.2h-.1l-.3.1-.2.3h.1s.2 0 .3-.2zm1.5.1c.2 0 .2 0 .7-.5l.5-.6-.3.2c-.2 0-.2.1-.6.5l-.4.4c0 .1 0 .1.1 0zm2.5-.2a9.4 9.4 0 0 0 2.2-2.1 32.8 32.8 0 0 0-1.8 1.7l-.1.1v-.1a631.6 631.6 0 0 1-.7.5l-.1.2.1-.1.4-.2zm-4.3 0 .2-.2h-.2l-.2.2-.2.2h.2l.2-.2zm-2.1 0 .1-.1V60h-.1l-.2.1-.1.2H28.7zm1.8 0 .2-.2-.2-.1-.2.2-.1.2h.1l.2-.1zm2.7 0c.2 0 .2 0 1-.8l.8-1c.2 0 .2 0-1 1.2l-.4.4.4-.2a24.2 24.2 0 0 0 2-1.9 39.6 39.6 0 0 1 1.3-1.4c.6-1 1-2.1 1.7-4 1.2-3.6 1.7-6.3 1.4-7.8 0 0 0-.4-.2-.7l-.3-1c-.3-1-.5-1.6-.8-2.1-.6-1-1.7-1.4-3-1.5-1.8 0-2.9.6-3.6 2.2a8 8 0 0 0-.8 2.7v.5l-.1-.3a8.5 8.5 0 0 0-.8-3c-.7-1.4-1.7-2-3.2-2a4 4 0 0 0-3 .9l-.8 1-.5 1.5c0 .4-.2.9-.3 1.1-.3.8-.3 1.2-.3 2A26.6 26.6 0 0 0 27.1 58v.1c0 .1.1.1.2 0v.2h.2c.1 0 .1 0 0 0v.2h.2v-.1c.1 0 .1 0 0 .1v.2h.2l.1-.2v.1c-.2.2-.2.2-.1.3l.2-.1.1-.1v.1l-.2.2H28.3l.1-.2v.2l-.2.1.1.1.2-.1.2-.2-.2.2c-.1.2-.1.2 0 .2 0 .1 0 .1.2 0l.2-.2-.1.2-.2.1.1.1.4-.3a24.4 24.4 0 0 1 1.7.6h1.8l.5-.2a13 13 0 0 0 1-.5c.2 0 .1 0-.7.8l-.4.5h.2zM28.9 58c-.7-.6-1-1.2-1.2-2.2l-.3-1.3c0-.2.2-.3.7-.5l.4-.2c.3-.1.6-.4.9-.8l.2-.2-.2.3-.5.7-.5.4c.2-.2.2-.2 0-.2l-.1.1-.4.4-.3.3c0 .1 0 .1.1 0h.1v.1l-.1.2v.1h.1s0-.1 0 0V55.5c.1-.1.1-.1.1 0-.1.1-.1.1 0 .2 0 .1 0 .1 0 0V56c0 .1 0 .1 0 0h.1v.4l.1.3.4.7a7.2 7.2 0 0 0 .6.8L29 58zm-1.1-3.6.2-.2h-.1l-.3.1v.3l.2-.2zm6.5 3.6.7-1v-.2l.2-.4c-.1.1-.1.1-.1 0v-.1l.3-.3v-.2l-.2.2c0 .1 0 .1 0 0l.1-.2.2-.3v-.1l-.2.1c0 .2-.1.2 0 .1v-.2l.3-.3v-.2l-.2.2c-.1.1-.1.1-.1 0l.2-.2.2-.3v-.1l-.2.1-.2.2.4-.4-.1-.1h-.2l-.2.2.1-.1.1-.2H35v.2c-.1 0-.1 0 0-.1V54h-.2c-.1.2-.2.2 0 0H34.6v-.2h-.2v-.1c0-.1-.1-.1-.2 0v-.2H34c-.1 0-.1 0 0 0v-.2h-.2v-.1l-.1-.3-.1-.2.1.2.6.6.7.4c.6.2.8.3.8.5l-.3 1.2a4.4 4.4 0 0 1-1.4 2.5l.1-.2zm-2.9 0a2 2 0 0 1-1-.6c-.3-.2-.3-.2 0 0 .4.3 1 .6 1.4.5.3 0 .7-.2 1-.4a132.4 132.4 0 0 1-1.1.6h-.3zm-.2-.6a110.6 110.6 0 0 1-2.8-2.3l1.3.6 1-.3c.3 0 .4 0 .6.2.3.2.4.2.6 0 .3-.3.3-.3.6-.2l1 .3c.3 0 .7-.2 1-.4l.1-.1.2-.1-.2.2-.5.4a9 9 0 0 1-.7.6l-.3.3a23.7 23.7 0 0 1 .5-.3 20.3 20.3 0 0 1-.9.8c-.3.2-.6.3-1 .3h-.5zm.6-.1H31.5h.3zm-.4 0V57h-.2.2zm.6 0c.1 0 .3-.1.2-.2l-.3.1h.1zm-.9-.1h-.2.2zM31 57h-.1c-.1-.1-.2 0 0 0zm-.3-.1v-.2h-.1v.2h.1zm-.2-.2c0-.1 0-.1-.1 0h.1zm1.2-.1.3-.3v-.1h-.2l-.2.3-.2.2h.2l.1-.1zm.5-.1.3-.3h-.1l-.4.2-.2.3h.1zm0 .2c.1 0 .2 0 .4-.3l.3-.3h-.1c-.2 0-.2 0-.5.4a1 1 0 0 0-.2.2h.1zm-.7-.3.2-.2h-.2l-.2.2-.2.2.4-.2zm-.3 0 .2-.2c-.2 0-.2 0-.5.3v.1s.2 0 .3-.2zm-.9.2v-.1H30c0 .1 0 .1.1 0zm2.5-.2c.2 0 .3-.1.4-.3l.2-.1H33c-.2 0-.2 0-.4.3l-.2.3.2-.2zm-1.9 0 .2-.2h-.4l-.1.2.1.1.2-.2zm-.8 0-.1-.1c0 .1.1.1.1 0zm.5-.2h.1-.3v.1h.2zm-.7 0h-.1.1zm.5 0V56c-.1-.1-.1 0-.2 0v.1h.2zm3.2-.2.4-.2.1-.2-.5.3-.3.3.3-.2zM30 56h-.2c.1.1.1.1.2 0zm-.4 0h-.1s.1.1.1 0zm.1-.2c-.2.1-.2.1 0 .2l.1-.1zm-.2 0v-.1h-.2v.1l.1.1h.1zm-.2 0v-.2H29v.1h.2zm-.2-.3h-.2l.1.1.1-.1zm-.3-.2c-.1 0 0 0 0 .1h.1zm3 .1.3-.2-.1.1-.2.2zm-.3 0v-.5a6 6 0 0 0 .1-.8v.3l.1.6v.4h-.2zm.3-.3.1-.2h.2l-.2.1c0 .1 0 .1 0 0zm0-.3.2-.1-.2.2zm-5.4-.1.1-.4c-.1.1-.1.1-.1 0l.1-.2V54h-.1l-.1.1.1-.2v-.1h-.2c0 .2-.1.1 0 0v-.2H26l-.1.1v-.1l.2-.1v-.1H26l-.2.1.1-.1.1-.1V53l-.2.1c0 .1-.1.1-.1 0 .2-.1.2-.2.1-.2 0-.1 0-.1-.1 0-.1 0-.1.1-.2 0h.1l.1-.2-.1-.1-.1.1h-.1l.2-.2h-.4.1v-.2H25l.1-.1v-.1H25V52h-.1v-.2h-.1v-.1l-.1-.2a1 1 0 0 1-.2-.5c0-.2 0-.3 0 0 0 .4.2.6 1.1 1.4.8.7 1 1 1.1 1.2.1.4 0 .6-.2 1-.1.2-.2.2-.1 0zm10.4 0-.2-.2-.1-.4c0-.2 0-.5.2-.8l.9-.9c.9-.8 1-1 1.1-1.5v-.1.3l-.2.6-.2.3-.4.5-.5.5c-.2.3-.4.5-.3.6l.3-.4.4-.4-.6.7c-.4.4-.5.5-.5.7h.1l.1-.1v.1l-.1.1v.4c.2.1.1 0 0 0zm-5-.2.1-.2-.1.3zm-.1-.2V54v.1zm-.2-.9-.3-.2c-.3-.2-.5-.3-.8-.3-.2 0-.2 0 0-.2.3-.3.7-.2 1 .4 0 .3.1.3.2.3s.2 0 .3-.3c.2-.5.5-.6.8-.5l.3.2h-.2l-.4.2-.4.2-.2.2h-.3zm2.2-.4s.1 0 0 0zm-6.6-.6c-.6-.1-1-.6-1-1.2s.3-1 .8-1.2l.2-.1c.2-.3.1-.6-.2-1a4.5 4.5 0 0 0-1.7-1.6c-.7-.4-1-.6-1.3-1l-.3-.3-.1.1c-.2.1-.3.4-.4.7v.2-.2c0-.7.4-1.5 1-1.9l1-.4.6-.3c.4-.2.8-.5 1-1l.3-.6h-.1l-.1.1v-.1c.2-.1.2-.2.2-.3l-.2.1-.3.3.2-.3c.2-.2.2-.2 0-.3l-.2.3-.3.2.2-.3.2-.2h-.2l-.2.2-.3.2.2-.2.2-.2h-.2l-.2.2-.3.2.2-.2.2-.2H25.7l-.2.1c0 .2-.2.2-.2.2l.1-.1c.2-.3.2-.3 0-.3l-.2.2c-.2.2-.2.3-.3.2l.2-.2.2-.2H25l-.2.2-.2.2.1-.2.2-.1h-.2l-.2.2-.3.1.1-.1.2-.2h-.2l-.3.2-.2.2v-.1l.2-.1-.4.2-.1.2v-.1c.3-.5.9-.7 2-.7H27v-.1a65 65 0 0 0 .3.2l.2.1 1.2.5c1 .5 1.6 1 2 1.8l.5.8c-.1 0-.2.1-.2 0h.1V45h-.2l-.1.2V45c.2 0 .2-.1.1-.2l-.2.1-.2.2.2-.2.1-.3-.3.2-.2.2.2-.3.2-.2-.1-.2-.3.3-.3.3.3-.3.2-.3v-.1l-.4.2-.3.3.3-.3.3-.3-.1-.1-.4.3-.3.3.3-.4.3-.3-.1-.1-.3.3-.4.3.3-.4.3-.3-.1-.1-.3.3-.4.3.3-.3.3-.3v-.1h-.1l-.3.3-.4.3.3-.4.3-.3-.1-.1-.3.3-.4.3.3-.3.3-.4h-.1l-.4.3-.3.3.3-.4.3-.3H29l-.4.2-.3.3.3-.3.3-.3-.2-.1-.3.3-.3.3.3-.4.2-.3h-.1l-.3.3-.3.2.2-.2.3-.3v-.1h-.1l-.3.2-.4.3.3-.3.3-.3h-.1l-.4.2-.3.3.2-.3.3-.3h-.1l-.3.2a2 2 0 0 0-.2.2 3 3 0 0 0 .6 1.2l1 .7c.9.6 1.1.9 1.4 1.4.1.3.2.7.1.8 0 .2-.4.5-1 .8l-1.5.9c-.4.3-.6.5-.6.8 0 .3 0 .4.4.6.7.3 1 1.3.3 2-.3.3-.6.4-1 .3zm3.2-5.3c.2 0 .2-.2.1-.4l-.4-.3-.6-.7-.6-.6c-.7-.5-2-.7-3.1-.5-.6.1-1.2.4-1.7.8-.4.3-.5.3-.2.3h.2l.4.5.7.6.7-.1c1-.4 1.7-.4 3 0 .6 0 .8.1 1 .3l.2.1h.3zM30 47l-.2-.2c-.2-.2-.5-.3-1-.4-1.2-.3-2-.3-3 .1l-.3.1-.4-.1a6 6 0 0 1-.8-.8l.5.3.4.4h.6a6.7 6.7 0 0 1 .3-.2 1.5 1.5 0 0 1-.1-1.5 4.9 4.9 0 0 1 1.3 0l1.1.2.2.1v.3c0 .3 0 .5-.2.7v.1l1.1.4.4.2.3.2c0 .1 0 .1-.2 0zm-1.8-1 .2-.7v-.1H28c0 .3-.1.6-.3.7v.1h.2zm-.4-3.6H27.4v.4l.3-.4zm-.2 0-.1-.1-.1.1v.1l.2-.2zm8.3 10c-.4 0-.7-.3-.9-.7l-.1-.5c0-.5.3-1 .7-1.2.3 0 .4-.2.4-.5 0-.5-.6-.9-2.2-1.7-.8-.4-1-.6-1-1 0-.2.1-.6.4-1l1.3-1 .6-.5c.3-.3.7-.8.8-1.2V43l-.2.1.2-.2.1-.3v-.1a29.2 29.2 0 0 0 0-.2l-1.2 1a15.9 15.9 0 0 1-1.5 1.6s-.2 0 1.3-1.4a44.6 44.6 0 0 0 .9-1h-.2L34 43.8a90 90 0 0 1 .9-1.1h-.2l-1.3 1.4-1.3 1.3v-.1l.3-.7c.6-1 1.1-1.5 2.2-2l1.2-.5h.3v-.2a18 18 0 0 0 .1-1.5 14.3 14.3 0 0 1 .1 1.6h.3l1.2-.1c1 0 1.5.1 1.8.4l.2.3-.2-.1h-.1v-.1c0-.1 0-.1-.2 0-.1 0-.1 0 0 0v-.1l-.1-.1-.2.1-.2.1.2-.1v-.1h-.3c0 .2-.2.2-.2.2l.1-.1.2-.2h-.2l-.2.2-.2.1.1-.1.2-.2h-.1l-.4.2c-.3.3-.4.3 0 0l.1-.3h-.2l-.2.3-.3.2.2-.2c0-.2.2-.3.2-.3h-.2l-.3.3-.4.3.2-.2.3-.4h-.2l-.4.4-.4.4v.1c.2.5.7 1 1.2 1.4l.6.2c.7.2 1 .4 1.3.7.4.4.7.8.7 1.3v.5-.2c-.1-.5-.3-.8-.5-.8l-.2.3c-.4.4-.6.6-1.3 1l-.9.5c-.4.3-1 1.1-1 1.5-.2.2-.2.4 0 .5l.3.3c.6.3.9 1 .5 1.7l-.5.5-.7.1zm-2.5-5.3.2-.1c.2-.2.3-.2.9-.4 1.3-.3 2.1-.3 3 0l.5.2c.2 0 .5-.1 1-.7l.4-.3h.2l.1-.1-.3-.3c-.8-.6-1.7-.9-2.7-.9-.7 0-1.3.1-1.8.3-.4.2-.7.5-1 1l-.5.6c-.6.3-.7.6-.3.7h.3zM33 47v-.1s.2 0 .3-.2l.4-.2 1.1-.4V46l-.2-.7V45h.2c.3-.2.6-.3 1.2-.3h1.3v.2c.1.2.1.6 0 .8l-.2.5h.1l.3.1c.4.2.5.2 1-.3l.4-.3s0 .2-.4.5c-.3.3-.5.4-.7.4h-.3c-.7-.3-1.2-.4-1.9-.4l-1.6.3-.6.3-.4.2zm4-1.1a1 1 0 0 0 0-.8L37 45v.5l-.1.4c-.1.1-.1.1 0 .2.1 0 .2 0 .3-.2zm-.2-3.8h-.1l-.3.2-.2.3.3-.2.3-.3zm-.5.2.1-.2h-.3v.3l.2-.1zm-6.5 9.9c0-.2.3-.5.4-.6.1 0 .2 0 .4-.3l.3-.4v-.2a7.6 7.6 0 0 0-.6.6l.3-.4.3-.4h-.2c-.2.3-.2.2 0 0l.2-.3h-.1l-.1.1.1-.2.1-.8v-.8a85.7 85.7 0 0 1 0 3.5v.1l-.2-.3c-.2-.2-.5-.1-.9.3-.1.2-.1.2 0 0zm1.1-.4c0 .1 0 .1 0 0zm0-.1v-.2h-.1c-.1.1-.1.1 0 .2zm-.2-.3c.2 0 .2-.1.2-.2V51l-.4.5c.1 0 .2 0 .2-.2zm2.6.8a2 2 0 0 0-.5-.4c-.2-.1-.4 0-.5.1l-.1.2h-.1v-3.6 3.4l.3-.3h.4l.5.5c0 .2.1.3 0 .1zm-5 8 .2-.2H28.3l-.2.2h.1v.1l.3-.1zm1.9 0 .2-.2h-.1l-.1-.1-.2.2-.2.2h.2l.2-.2zM30 60l.2-.2H30l-.2.1-.2.2.1.1.2-.2zm-1.8 0 .2-.1-.1-.1-.2.1-.2.2H28.2zm1.8-.3h-.1l-.3.1-.2.2h.1v.1l.3-.2.2-.2zm-2 .2.2-.2-.1-.1-.2.2-.2.1.2.1.1-.1zm-.5.1v-.1h-.1v.1h.1zm-.2 0v-.2h-.2l-.1.2H27.3zm8.5 0s0-.1 0 0c0 0-.1 0 0 0zm-8.8-.2.2-.1-.2-.1-.3.3H27zm2.6 0 .1-.2-.1-.1-.2.2-.2.2h.2l.2-.1zm-2.8 0c0-.2.2-.3.2-.3l-.1-.1-.3.2-.2.3h.2l.2-.2zm1 0 .2-.3h-.1l-.2.1-.2.2h.4zm-1.2-.2.2-.3h-.1l-.6.5.5-.2zm2.7 0 .2-.1v-.1h-.1l-.2.2-.2.1.1.1.2-.1zm-2.7-.5h-.3c0 .2-.2.3-.3.4l-.2.3h.2l.3-.3.3-.4zm-.5.3.3-.4v-.1l-.5.4-.4.4h.2l.4-.3zm1.6.1.1-.1-.1-.2-.2.2-.1.2v.1s.2 0 .3-.2zm1.4 0 .2-.2h-.1l-.4.3H29zm-6.5.1 1.2-1.2a72.2 72.2 0 0 0 1.1-1.3l-1.3 1.2a97.6 97.6 0 0 0-1 1.3zm3.2-.4.5-.4-.1-.1a20 20 0 0 0-1 1c.2 0 .2 0 .6-.5zm-.2 0 .5-.6-.1-.1a29.5 29.5 0 0 0-1 1.1l.6-.5zm-2.6.3 1-1a100.8 100.8 0 0 0 1-1.2l-.1.1a161.4 161.4 0 0 0-1.9 2.1zm2-.2.7-.6.2-.3v-.1a36.3 36.3 0 0 0-.8 1zm2.6-.1V59l-.3.1a1 1 0 0 0-.1.2v.1l.3-.1.1-.2zm-2.5-.3.7-.7h-.1V58l-.7.7a31.9 31.9 0 0 0-.6.7l.7-.6zm-.9-.2 1-1v-.2l-1 .9-1 1v.1h.2zm.7 0a26.5 26.5 0 0 0 .7-.8h-.1l-.5.5-1 1.1.9-.7zm-.3 0 .9-.9h-.1v-.1l-1.6 1.6-.2.2h.2zM18 58a8.2 8.2 0 0 0-1.3 1.3l1.3-1.3zm9.4.9H27l-.1.3h.1l.2-.1.2-.2zm-.2-.2-.2.1-.2.2.1.1.2-.2.2-.2zm-.3 0 .2-.1v-.1H27l-.2.1-.2.2.1.1.2-.2zm-.1-.1.1-.2v-.2l-.2.2-.2.2v.1l.3-.1zm-.1-.3V58l-.2.2-.2.2v.1h.2l.2-.2zm-.3-.1.2-.2-.1-.2-.2.2-.2.3h.1l.2-.1zm-.1-.2.1-.2v-.2l-.3.2-.1.3.3-.1zm0-.4-.1-.2-.2.2a4 4 0 0 0-.2.3v.1l.3-.2.2-.2zm-.4 0 .2-.2v-.1s-.2 0-.3.2l-.2.1v.1h.1l.2-.1zm-.1-.2.2-.2v-.1h-.1l-.2.1-.2.2v.1l.3-.1zm0-.4V57h-.2l-.2.3v.1l.2-.1.2-.2zm12.3-.6.9-1v-.1l.2-.3a27.4 27.4 0 0 0-2 2.3l.9-.9zm-12.6.6c0-.2.2-.3.2-.3v-.1l-.3.2-.2.2v.1l.3-.1zm-.2-.3.3-.2-.1-.1-.5.4.1.2.2-.3zm0-.2.1-.2v-.1l-.3.2-.2.2v.1s.2 0 .3-.2zm-.2-.2.2-.3V56l-.3.2-.3.3.1.1s.2 0 .3-.2zm14.3-1.7v-.2a20.5 20.5 0 0 0-1.6 2l.7-.8.8-.8zM25 56.2c0-.2.2-.3.2-.3v-.1l-.3.2-.3.2v.1l.1.1.3-.2zm-.2-.3.3-.2v-.1l-.1-.1-.3.3-.2.2v.2l.3-.3zm.2-.5-.1-.2-.3.3a5 5 0 0 0-.2.3v.1l.3-.2.3-.3zm-.4 0 .3-.2V55l-.1-.1-.3.3-.3.2v.1c.1 0 .1.1.1 0 0 0 .2 0 .3-.2zm15-1.3V54l-.6.7-.7.7v.2l-.1.2.7-.7.6-.7zm-14.9.8v-.2l-.6.6v.1h.1l.3-.2.2-.3zm-.3 0 .3-.3-.1-.1-.3.3-.3.3a31.4 31.4 0 0 1 .4-.2zm15.4-1.4v-.2l-.6.7-.7.8v.2l.6-.6.7-.7v-.2zm-15.5 1.2.3-.3v-.1h-.1s-.2 0-.3.2l-.3.3v.2l.4-.3zm0-.3.2-.3-.1-.1-.6.6c0 .1 0 .1.1 0 0 0 .2 0 .3-.2zm0-.6v-.1l-.3.3a5 5 0 0 0-.3.3v.2l.4-.3.3-.4zm15 0 .6-.6.3-1 .3-1-.6.6c-.6.6-.5.6-.6 1l.5-.6.5-.5-.5.7-.7.7v.2l.6-.6.5-.5-.6.7-.6.6v.2l-.1.1.6-.5.5-.6-.6.7c-.6.6-.6.7-.6.8a17.4 17.4 0 0 1-.1.2l.6-.6zm-15.3 0 .3-.2v-.1h-.1l-.3.2-.3.3v.1l.4-.2zm.2-.6-.4.2-.3.4v.1s.2 0 .4-.3l.3-.3zm-.4.1.3-.3v-.1l-.4.3-.3.4a14.2 14.2 0 0 1 .1 0l.3-.3zm-.1-.2.3-.4-.4.2-.3.3v.2l.4-.3zm.2-.6c0-.2 0-.2-.4.1l-.3.4.1.1.3-.3.3-.3zm-.4 0 .3-.3V52l-.3.3-.3.3v.1s.2 0 .3-.3zm.2-.6c0-.2 0-.1-.3.2l-.3.4s.2 0 .3-.2l.3-.4zm0-.3h-.1l-.6.5v.2l.3-.3.3-.4zm16.8-.4v-.4a31.8 31.8 0 0 0 .9-9.4 7.6 7.6 0 0 0-1.4-3.6c-.7-1-1.7-1.5-3.3-1.8a20.5 20.5 0 0 0-3-.3 23 23 0 0 0-4.7 0c-2 .1-3.4.4-4.3.9l-1 .7c-.6.6-1.1 1.5-1.5 2.5l-.4 2.5a43.9 43.9 0 0 0 .5 7l.3 1v.2h.1V50.8h.2-.1v.3l.2-.1-.1.1-.1.2v.1l.2-.1.2-.2-.2.2c-.2.2-.2.2-.1.3v.1l.2-.2.3-.2-.2.3-.3.2v.2a9 9 0 0 0 .6-.6v-.5a25.7 25.7 0 0 1-1.2-6.7c0-2.1.2-3 .6-4 .3-.6.8-1.2 1.2-1.7.9-.8 1.9-1.2 3.7-1.5a22.5 22.5 0 0 1 7.6 0c1.7.2 2.7.6 3.4 1.2.9.7 1.6 2 1.9 3a22 22 0 0 1-1 10.4l.4-.4c.4-.5.6-.6.5-.4l-.6.6-.5.4v.4l.5-.5.5-.5zm-.1-.6.2-.3h.1l-.2.2-.1.1zm-17.8-6.2s0-.4.2-.7c.4-1.9.8-2.6 1.5-3.3a4 4 0 0 1 2.3-1.1H28a4.6 4.6 0 0 1 3.6 2l.2-.3c.4-.5 1-1 1.5-1.3.8-.3 1.6-.5 2.7-.5.5 0 .8 0 1.1.2 1.1.2 2.1 1 2.6 2l.8 2.4.3.8V44a8 8 0 0 0-1.4-4.1c-1-1.5-2.2-2.2-4.4-2.7a15.6 15.6 0 0 0-7.2 0c-1.8.5-2.9 1.2-3.8 2.5a7.5 7.5 0 0 0-1.5 4.5v.1zm9-5.2a13.9 13.9 0 0 1 1-1l-.2-.1-.5.6-.7.6a17.2 17.2 0 0 1 1.1-1.2H32l-.6.6-.6.6.5-.6.6-.6h-.2l-.6.6-.7.6.6-.6.6-.6h-.4l-1 1.1.7-.8.3-.3H31l-.5.5-.6.6.4-.5.5-.5.1-.1H30.6l-.5.5-.5.5.4-.4.5-.5H30.2l-.4.5-.5.4.3-.4.4-.4H30c-.2 0-.2 0-.5.4l-.4.3.3-.3.3-.3h-.1c-.2 0-.2 0-.5.3l-.3.2.2-.2.3-.3H28.9l-.2.3-.3.2.2-.2.1-.2-.4.2c-.1.1-.2.1 0 0v-.2l-.3.1c-.1 0-.1 0 0 0h-.5l.7-.2a8 8 0 0 0 2.1-.8l1.5-.1c.8 0 1 0 1.6.3.5.3.8.4 1.6.6l.8.2H35l-.2.2.2-.2h-.2l-.3.1-.3.3.2-.2c.3-.3.3-.3.1-.3l-.3.3-.4.3.2-.3.3-.3h-.2l-.3.3a2 2 0 0 1-.4.4s0-.2.3-.4l.3-.4H34l-.5.4-.4.4.3-.4.4-.4h-.1l-.5.4-.5.5.4-.5.3-.5-.6.5-.5.5.3-.3.6-.7H33l-.5.5a3 3 0 0 1-.6.5l.5-.5.5-.6h-.2l-.4.4a88 88 0 0 0-.7.6zm-24.4-.4.3-.3-.2.3a3 3 0 0 0-.3.3H7.3l.3-.3.3-.4-.2.3-.2.3h.1l.5-.5.4-.4c.2-.3.2-.8 0-1.3l-.3-.6-.4-.3c-.3-.1-.5-.2-.8-.1h-.4c-.5.2-.8.5-1 .9-.1.2-.1.2.1 0l.2-.2s0 .2-.2.3l-.3.4v.1l.2-.2.2-.1-.2.2-.2.3v.1l.2-.1.2-.2-.1.3-.2.2v.1l.2-.1.2-.2-.2.2-.1.3c0 .1 0 .1.2 0l.2-.3-.1.3-.2.2v.1s.2 0 .3-.2l.2-.2-.1.2-.2.2v.2l.3-.2.2-.2-.2.2-.2.3h.1s.2 0 .3-.2l.2-.2-.2.3-.2.2h.1s.2 0 .3-.2l.3-.2-.2.3a4 4 0 0 0-.2.2l.1.1.3-.3.3-.2-.2.3-.3.2H7s.2 0 .3-.2zm.9-1c0-.3 0-.4-.2-.6-.2-.5-.7-.8-1.2-.9l.1-.2.2-.2H7c.3 0 .7.2 1 .5.2.2.4.5.4.8v.3l-.2.2-.2.2v-.1zm.2-.5c.2-.1-.1-.7-.5-1l-.6-.3-.1.1.1.2c.4.1.7.4 1 .8 0 .3 0 .3.1.2zM57 38.8l.3-.2-.2.2-.2.2c.3 0 .3 0 .5-.3l.4-.3-.1.2-.1.1c.5-.3.8-1 .6-1.8-.2-.5-.7-1-1.3-1.1h-.8a1 1 0 0 0-.2.1l-.4.3-.3.4.3-.3.3-.2-.2.2-.3.3-.2.4v.1h.1l.2-.2-.2.2-.2.3v.1l.2-.1.1-.1-.1.2-.2.2v.1l.2-.1.2-.1-.1.2-.2.1v.2l.2-.1.2-.1-.1.1-.2.2.1.1.2-.1c0-.1.1-.2.2-.1l-.2.1-.1.2v.1l.3-.1.1-.2v.1l-.2.2v.2l.2-.2c.2-.1.2-.2.3-.1l-.2.2-.2.2h.2l.2-.1c0-.2.2-.2.2-.2l-.2.2-.1.2h.1l.2-.1c.3-.3.4-.3.1 0l-.2.2h.2l.2-.2.3-.2-.2.2-.2.3h.1l.4-.3zm.7-1v-.2a1.7 1.7 0 0 0-1.5-1.3l.2-.2.2-.2.6.1c.2 0 .3.1.4.3l.4.4.1.7-.3.4h-.1zm.2-.5v-.1c0-.2-.1-.6-.4-.8l-.7-.4-.2.1.3.2c.4.2.7.5.8.9.1.2.1.2.2.1zM25.8 36a12.9 12.9 0 0 1 1.8-.3l1.3-.2a299.2 299.2 0 0 0 4.1 0 298.8 298.8 0 0 0 4.5.5h1.4c.6-.2 1-.5 2-1.5 1.4-1.2 1.9-1.6 2.9-2.1a14.3 14.3 0 0 1 6.8-1.4c1.3.1 2.3.5 3.4 1.2a5 5 0 0 1 1.8 2.1c0 .2.1.3 0 .1l-.1-.7c-.5-1-1.7-2.2-3.2-3-1-.4-2-.7-3.5-.8h-2.5a27 27 0 0 0-6.3 1.5L40 31a2 2 0 0 0-.1-.2h-.2l-.4-.3h-.5v.1c-.1 0-.1 0 0 0 0-.2 0-.4-.3-.6-.2-.2-.2-.2-.4-.1-.2 0-.3.1-.6.4l-.3.2.2-.3c.4-.4.5-.6.5-.8l-.1-.2h-.3l-.7.5-.5.4-.2.1.3-.2.3-.4v-.2a15.4 15.4 0 0 0-1.2 1.2l.4-.5.9-1V29a46.6 46.6 0 0 0 0-.2c0-.2 0-.2-1.1.9l-1.1 1 .7-.7 1-1.1.4-.4v-.1a85.8 85.8 0 0 0 0-.3h-.1l-1.4 1.3a117.5 117.5 0 0 1 1.1-1.2l.3-.2v-.1h-.1a138.8 138.8 0 0 0-1.5 1.4l1.4-1.6v-.1a51.7 51.7 0 0 0-.1-.2l-.6.5a1401.6 1401.6 0 0 0 .5-.7V27l-1.5 1.5a142.7 142.7 0 0 1 1-1.3l.4-.3-.1-.1a119.5 119.5 0 0 0-1.4 1.2l1.4-1.3v-.1h-.1a88.6 88.6 0 0 0-1.4 1.2l1.3-1.3v-.1a52 52 0 0 0-1 .7c1-1 1-.9.8-1l-1 1-1.4 1.3 1-1 1.2-1.2.2-.2-.1-.1a92.4 92.4 0 0 0-.1-.2h-.2a234.8 234.8 0 0 0-1.8 1.7c.3-1.4.3-2-.3-3.9l-.5-2.5c-.2-.8-.1-1.2.1-1.7.2-.3.4-.6 1.3-1.4 1-1 1.1-1.2 1.3-1.9l.2-.4c0-.2.3-.5.4-.6V15l-.1.5.3.4 1.4.7.8.5c.8.5 1.2 1.2 1.8 3.1a20.2 20.2 0 0 1 1 4.8c0-2.4-.1-3.3-.3-4.2-.3-1.6-1-3.3-1.6-4.4-.6-.9-1.5-1.9-2.2-2.4-1-.7-1.7-.7-2.8-.2l-1.3.8-.5.4-.5.4-.7.7-.3.3.2-.2a105 105 0 0 1-2 1.7 46.8 46.8 0 0 0-.4.7L27.6 20l-.9.8v.3c-.2 0-.2.2-.2.2l.7-.7.6-.5-.8.8c-.6.6-.6.7-.7.9l-.1.2.6-.6.5-.5-.6.7-.6.6v.2l-.1.2a13 13 0 0 0 1-1.1c.1 0 0 .2-.5.7l-.6.6v.1l-.1.2.6-.5.5-.5-.6.6-.6.6V23.5a24 24 0 0 1 .3-.2l-.4.4V24l.5-.5.5-.6s0 .2-.5.7l-.6.6v.2l.5-.5.6-.5-.6.6-.6.6v.3a30.4 30.4 0 0 0 .5-.5l-.5.6V25.3l.5-.6.5-.5-.4.6a47.7 47.7 0 0 1 .4-.2l-.5.6-.6.7.6-.4.5-.5-.5.6c-.6.5-.6.5-.5.7l.5-.4.5-.5-.5.5-.5.6v.1l.5-.4.5-.4-.5.5c-.5.4-.5.5-.4.5v.1l.4-.4.5-.4-.4.5-.5.5v.1s.3-.1.5-.4l.4-.3-.4.4-.4.4v.2l.4-.4.4-.3-.3.4-.4.4v.1l.4-.3.3-.3s0 .2-.3.4l-.3.3v.2l.4-.3.3-.2-.3.3-.3.3.1.1.3-.2.2-.2-.2.3-.2.2v.2l.3-.2.2-.2-.2.2-.2.2v.1l.3-.1.1-.1-.1.2c-.2.1-.2.2-.1.3l.2-.1.1-.1v.1l-.2.2v.1l.2-.1s.1-.1.1 0c-.2.2-.2.2-.1.3h.1l.1-.1v.1h-.1v.2h.2v.2h.1v.2h.1l.1.2h.1l.7.8c.2.1.2.1 0 0a14.1 14.1 0 0 1-1.7-1.2v-.1h-.1l-.2.1-.3.3V30.3l.2.2-.2-.2h-.1v-.1h-.2V30l-.5.5-.5.4.4-.5.5-.4-.1-.1-.4.3-.4.4c0 .1 0 .1 0 0l-.1.1s-.1.1-.1 0c.1-.1.1-.1 0-.2h-.1l-.1.2v-.2H23.8l-.4.2-.1.3.2-.1-1 1 .2-.3.3-.3h-.2l-.3.3-.3.2.2-.3.3-.3h-.1l-.3.2-.4.3.1-.1.3-.3.2-.2h-.2l-.3.3-.3.2.2-.3.3-.3H22l-.4.3-.3.2.3-.3.2-.2-.2-.1-.2.3-.3.2.2-.3.3-.2h-.2l-.3.2-.3.2.2-.3c.2 0 .3-.2.3-.2h-.1l-.3.2-.3.2.2-.2.2-.3h-.2l-.2.2-.3.2.1-.1.3-.3v-.1h-.1l-.3.2-.3.2.2-.2.3-.2h-.1l-.1-.1-.2.2-.3.2.2-.2.2-.2h-.1l-.3.1-.3.2.2-.2.2-.2h-.1l-.3.1-.2.2.1-.2.2-.2-.3.1-.3.2.2-.2.1-.1-.2-.1-.1.2-.2.1v-.1l.2-.2H18.7l-.2.2.1-.1.1-.2h-.1l-.2.1-.2.1.1-.1.1-.1h-.3l-.1.1.1-.2H18c-.2.2-.3.2-.1 0h-.4c.2-.1.1-.1 0-.1h-.1l-.1.1v-.1H17l-.1-.1h-3.5c-1.6.3-2.9.8-4 1.7-1 .7-1.6 1.5-1.9 2.3l-.1.6.1-.3a5 5 0 0 1 1.6-1.8c1-.9 2.2-1.3 3.5-1.4a15 15 0 0 1 4.8.6 10.9 10.9 0 0 1 5 3c1.2 1 1.6 1.3 2.2 1.4h1.2zm1.6-.7c.1 0 .1 0 0 0s-.1 0 0 0zm.3 0c.1 0 .1 0 0 0zm-.6 0 .1-.2v.2H27zm-.3-.1.2-.2-.3.3v-.1zm-.4 0 .1-.1.2-.2-.1.2-.2.1zm-.3 0 .4-.4-.1.2-.3.2zm8.6-.1.1-.1-.2.2V35zm.4 0 .1-.2c.1 0 0 0 0 .1-.2.2-.3.2-.1 0zm-.8 0h.1-.1zm1.2-.1c.1-.2.3-.3.3-.2a1.8 1.8 0 0 1-.4.3l.1-.1zm-9.5-.1.2-.2-.3.4.1-.2zm10 0 .3-.3a3 3 0 0 1-.5.5l.2-.3zm-10.4 0 .2-.2.2-.2-.1.3-.3.2zm10.9-.2.3-.3-.1.2-.4.4.2-.3zm-11.2.2.5-.5-.2.3-.3.2zm11.8-.5.5-.5-.3.4-.5.5.3-.4zm-12 .4s0-.2.2-.3l.3-.2-.2.2-.3.3zm-.3-.2.3-.2.3-.3-.2.3c-.3.2-.3.3-.4.2zm-.2 0c0-.1 0-.2.3-.4l.3-.3-.3.4-.3.2zm13.3-.7a10.5 10.5 0 0 1 .9-.7 24.2 24.2 0 0 1-.9.7zm-8.4.5c-1 0-1.8-.4-2.5-1a10.5 10.5 0 0 1-2-2l-.1-.1v-.1h-.2v-.2h.2c0-.1 0-.1 0 0v.1s0 .1.1 0v.1l.1.2h.1l1.5 1.5 1.3.8a6 6 0 0 0 2.7.2 13.7 13.7 0 0 1 1.8 0h2c1.2-.2 2-.7 3.3-2.2l.7-.7-.3.4c-.7.9-1.4 1.6-2 2-.9.8-2 1-3.5 1h-3.2zm-5 0 .2-.4.3-.2-.3.3-.3.3zm-.3-.2.6-.6-.2.3-.4.3zM24 34l.3-.4.3-.3-.2.4a8 8 0 0 1-.4.3zm-.2-.2s.6-.7.7-.6l-.3.3-.4.3zm14.7-.2zm-14.8 0 .3-.3.3-.4-.3.4-.3.3zm-.2-.2.4-.4.2-.2-.3.3-.3.3zm-.1-.2.2-.4.4-.3s0 .2-.2.3l-.4.4zm7-.1h-.3c-1-.1-2-.6-2.8-1.2-.4-.2-1-1-1-1l.3.3 1 .7c.5.3 1.3.6 2.1.7l2 .1 2.3-.1a6 6 0 0 0 3-1.6l-.9.8a6.2 6.2 0 0 1-4.4 1.3h-1.3zm-7.2-.1.3-.4.3-.3-.3.4-.3.3zm-.1-.2s0-.2.3-.4l.3-.3-.3.4-.3.3zm-.2-.3.4-.3.3-.4-.3.4a12.5 12.5 0 0 1-.4.3zm-.1-.2.3-.4.4-.3-.3.4-.4.3zm-.2-.2.4-.4.5-.4-.4.4-.5.4zm8.2 0c-.7-.1-1-.2-1.5-.5l-.6-.3.5.2.8.2a7.6 7.6 0 0 0 5.5-1h.3l-.6.4a7.7 7.7 0 0 1-4.4 1zm9-.1c.1-.1.1-.1.1 0-.1 0-.1 0 0 0zm-8.4-2.5h-.1l-.2.1.1-.1.2-.2-.1-.2-.2.2c-.3.3-.3.2 0 0l.2-.3v-.2l-.3.3a2 2 0 0 1-.3.2l.2-.3.3-.2v-.1l-.1-.1-.3.3-.3.3.2-.3c.4-.4.4-.4.3-.5l-.3.3-.4.3.3-.4.4-.3v-.1l-.1-.1-.4.4-.4.3.3-.3c.5-.5.5-.5.4-.6l-.4.4a2 2 0 0 1-.5.3l.5-.5.3-.3v-.2l-.5.4-.4.5.3-.5c.6-.5.6-.5.5-.6 0 0-.3.1-.5.4l-.5.5s0-.2.5-.6l.5-.5-.1-.2a14 14 0 0 0-1 1l.4-.5.6-.6v-.2l-.6.6-.7.6 1-1 .3-.3V26.3l-.7.7-.7.7.7-.8.8-.8V25.8a16.4 16.4 0 0 0-1.4 1.5l-.3.2.3-.4a59.9 59.9 0 0 0-.4.1l1-1.1 1-.9-.1-.2a40.6 40.6 0 0 0-.3.3l.3-.4-.1-.1a72 72 0 0 0-.9.8l.9-1h-.1l-.3.2a614 614 0 0 0 0-.1l.2-.2v-.1a44.9 44.9 0 0 0-.5.2l.4-.4-.1-.1-.3.2a9 9 0 0 1-1.2 1.2l.6-.6c1-1 .9-.9.8-1a18.2 18.2 0 0 0-.7.5l.7-.6v-.1l-.1-.1a24.8 24.8 0 0 0-.1 0v-.4l-.6.7a31 31 0 0 1 0-.1l.7-.7V22.8a20 20 0 0 0-.5.5l.6-.7V22.3a14.6 14.6 0 0 0-.3.2l.5-.5c0-.1 0-.1 0 0l-.1.9c0 .5 0 .8.7 1.4l.4.6-.2 1-.2 1 .2 1.4.3.7v.7-.2zm9.4.7.3-.3-.2.3c-.3.3-.3.3 0 .2l.3-.3.5-.4-.2.2-.3.3.4-.3a1.7 1.7 0 0 0-1-2.7H40c-.2 0-.3.2-.5.4l-.3.4c-.2.3-.3.3-.3.5v.1l.2-.2.2-.1-.2.2-.2.2V29l.2-.2.2-.2-.2.3-.2.3.2-.1.2-.2-.2.3-.2.2.1.1.2-.2.2-.1-.1.2-.2.2v.2l.3-.2.2-.2-.2.2-.2.2v.1h.1l.2-.1c.3-.3.4-.3 0 0l-.1.2.1.1.2-.2.3-.2-.2.2-.2.3h.1l.3-.2.2-.2-.2.3c-.2.2-.2.2 0 .3l.2-.3.3-.2-.2.3-.2.2h.1s.2 0 .3-.2l.3-.3-.2.3-.2.3c.2 0 .2 0 .5-.3zm.5-1V29a1.7 1.7 0 0 0-.9-1.2h-.2a1.5 1.5 0 0 0 .5-.4l.6.3c.3.3.6.8.6 1.3l-.1.4-.3.1h-.1v.1-.2zm.4-.1v-.5c-.1-.4-.4-.8-.7-1h-.3l.2.2.4.5a2.2 2.2 0 0 1 .2.8h.2zm-16.6.7-.4.3a1 1 0 0 0-.2.3l.3-.2.4-.4H25zm14 .5-.2-.1a2 2 0 0 1-.4-1.8c0-.3.4-.7.7-1l.6-.3h.8c.2 0 .2 0 .2-.2v-.4l-.3-2.3c-.4-2-1-4-1.6-5-.5-.7-1-1.1-1.8-1.4l-.5-.2-.5-.2-.3.3-.8 1c-.7.5-.8.7-.9 1-.2.4-.2 1 0 2 .3 1.3.8 2.6 1.4 3.9a40 40 0 0 0 1.8 3.1l.2.2.2.1c.2 0 .3.2.4.3 0 .2.4.6.8 1h.1zm-13-.8v-.1l-.3.3-.2.2v.2l.3-.3.3-.3zm-.1-.1-.1-.1-.3.2-.2.2.1.1.2-.2.3-.2zm-.4 0c.2-.2.2-.2 0-.2h-.1l-.1.3.2-.1zm13.7-1.7.3-.4-.3.3-.4.5.4-.4zm-4.2-1.9.2-.2v-.1l-.7.6-.7.7v.2l-.1.2 1.3-1.4zm-.5.2.6-.6-.1-.1a10.7 10.7 0 0 0-1 1.1l-.1.2.6-.6zm.2-.6.2-.2V25l-.5.3-.4.5V26.2l.3-.3.4-.5zm-.3 0 .4-.5-.1-.1-.3.4-.4.3v.2l.4-.4zm.1-.5.2-.2-.1-.1-.3.3-.3.2v.2h.2l.3-.4zm0-.5-.3.2-.2.2v.2l.3-.2.3-.3zm-.3.1.2-.3-.3.1-.2.2v.2s.2 0 .3-.2zm0-.5v-.1l-.3.2V24.4l.2-.2.2-.2zm0-.2-.1-.1H34v.3l.2-.2zm-.2-.2v-.1h-.2V23.8l.1-.1.1-.1zm-.1-.3c-.1-.1-.1 0-.2 0 0 .2 0 .2.1.1h.1zm-4.4-6a26.7 26.7 0 0 0-1.2 1l-.8 1 .6-.6 1.4-1.4zm26 56.7c-.6-.1-1-.6-1-1.4v-.9c0-.5.4-1 1-1h.6c.6 0 1 .3 1 .8.2.5.2 1 .1 1.5s-.4.9-.9 1h-.7zm.5-.3c.4 0 .6-.3.7-.7v-1.3c-.1-.4-.3-.6-.5-.7h-.7c-.2.1-.4.3-.4.7v1.6c.1.2.2.3.4.3l.5.1zm.4-5.5v-1.6a27.7 27.7 0 0 0-1.1 1.4l.2.1v.2H54.4V68h.2a40 40 0 0 0 1.2-1l-.5-.7-.6-.9a.6.6 0 0 0-.4-.2v-.2h.4l.5.1.6.9.3.5.3-.1.2-.2v-.8l-.4-.2H56v-.2h1.6v.2h-.1c-.2 0-.3 0-.4.2V69.4l.4.2h.1V69.8h-1.1v-1.6zm-.7-4.2c-.4-.1-.7-.3-.9-.7l-.1-.7v-.4h2V62c0-.3-.1-.6-.3-.8-.2-.3-.7-.4-1.2-.2l-.2.2-.1.1c-.2-.3.1-.6.6-.7h.8c.4.1.8.4 1 1V63c-.2.5-.6.8-1 1h-.6zm.5-.4c.3-.2.4-.5.5-1h-1.4v.7l.4.3h.5zm-.9-4.1c-.3 0-.5-.2-.5-.5 0-.2.2-.4.5-.4l.1.1c0 .3.1.4.3.4.2 0 .3-.1.4-.4.2-.3.2-.6.2-1.4 0-.8 0-.8-.2-.9h-.4v-.2h1.8v.2h-.2c-.2 0-.3 0-.3.2v2.3c0 .2 0 .2.3.3h.1v.2h-.9a172.4 172.4 0 0 1-.2-.4c-.2.4-.5.5-1 .5zM5.2 31.8v-.2h.1l.4-.1V29l-.3-.2h-.1v-.2H6a90.5 90.5 0 0 1 .3.4c0-.2.2-.3.3-.4h.8c.2 0 .3.2.3.4s-.2.4-.4.4h-.1v-.1c0-.3-.2-.4-.4-.4s-.4.2-.5.7v1c-.1.7-.1.7 0 .8 0 .2.1.2.4.2H7v.2H5.2Zm1.2-4.4c-.5-.1-.8-.5-1-1a3 3 0 0 1 0-1.4c.1-.4.4-.7.7-.8l.6-.2c.6 0 1 .4 1.2 1v.8H6v.2c0 .5.2.9.5 1h.4c.3.1.6 0 .8-.2l.2-.1c.2.3-.1.6-.6.7a2 2 0 0 1-.8 0zm1-2.2c0-.6-.3-.9-.7-.8-.2 0-.4 0-.5.2l-.2.7v.2h1.4v-.3zM5 22.8v-.1h.2c.2 0 .3 0 .3-.2V18.7c0-.1-.1-.2-.3-.2H5V18.2h1.1v3.2A36.9 36.9 0 0 0 7.5 20l-.3-.1v-.2H8.3v.2c-.3 0-.4 0-.6.3l-.7.7 1 1.6.4.2h.1v.1c0 .2 0 .1-.4.1-.5 0-.5 0-1.1-1l-.4-.5-.2.1-.3.2v.8l.4.2h.2v.2H5zm1.3-5.4c-.4-.1-.7-.3-.8-.7-.2-.4-.3-1-.2-1.6.1-.6.4-1 1-1 .1-.1.6-.1.8 0 .5 0 .8.4 1 1v1.3c-.2.5-.5.8-1 1h-.8zm.7-.4c.3 0 .4-.3.5-.7V15l-.2-.5c-.3-.3-1-.3-1.2 0L6 15V16.3c0 .4.3.7.5.8h.6zm-2.5-4.3v-.2H5c1 0 1.4-.3 1.7-.7l.2-.5v-6l-.2-.1C6.4 5 6.3 5 5.8 5h-.4v-.4H9.7V5h-.3c-.6 0-1 0-1 .3l-.1 3c0 3.3 0 3-.2 3.4l-.7.7-.8.3-1.7.2h-.3v-.2z"/>
</svg>