<svg version="1.1" id="Livello_1" xmlns="http://www.w3.org/2000/svg" xmlns:xlink="http://www.w3.org/1999/xlink" x="0px"
    y="0px" viewBox="0 0 69 69" style="enable-background:new 0 0 69 69;width: 69px;height: 69px;" xml:space="preserve">
    <style type="text/css">
        .st0 {
            fill-rule: evenodd;
            clip-rule: evenodd;
        }
    </style>
    <path class="st0" d="M38.6,34.4c0,3,0,6.1,0,9.1c0,0.8,0.3,1,1,1c1.3,0,2.6,0.1,3.9-0.1c3.4-0.4,6.1-1.9,7.5-5.2
    c1.3-3.2,1.3-6.6,0.1-9.8c-1.1-3-3.5-4.4-6.6-4.9c-1.6-0.3-3.3-0.1-5-0.1c-1,0-1,0-1,1C38.6,28.5,38.6,31.4,38.6,34.4z M22.1,34.1
    c0-4.8,0-9.6,0-14.4c0-0.8,0.1-1.7,0.1-2.5c0.1-2.6,2.2-4.6,4.7-5c0.7-0.1,1.5-0.2,2.2-0.2c6.2,0,12.4,0,18.6,0
    c4.9,0.1,9.5,1.4,13.5,4.3c3.9,2.8,6.2,6.8,7.1,11.4c1,5.7,1.1,11.4-1,16.9c-1.9,5.3-5.7,8.7-11,10.7C53,56.7,49.5,57,45.9,57
    c-5.4,0-10.8,0-16.2,0c-2.1,0-4-0.5-5.6-2.1c-1.5-1.5-2-3.3-2-5.2C22,44.5,22.1,39.3,22.1,34.1L22.1,34.1z" />
    <path class="st0" d="M17.1,39.5c-0.2,3.8,0,7.4-0.2,11c-0.1,3.9-2.7,6.8-7,7.1c-2.1,0.1-4.2,0.1-6.1-1c-2.2-1.2-3.3-3.1-3.6-5.5
    c-0.2-1.7-0.1-3.3-0.1-5c0-3.7,0-7.4,0-11.2c0-0.7,0.2-1.1,0.9-1.4c3.6-1.4,7.2-2.8,10.8-4.2c1.4-0.6,2.8-1.1,4.2-1.7
    c1-0.4,1.1-0.4,1.1,0.7C17.1,32.3,17.1,36,17.1,39.5z" />
    <path class="st0" d="M0.1,22.9c0.1-1.7-0.2-3.9,0.3-6c0.8-3.5,3.7-5.7,7.3-5.7c1.7,0,3.3,0,4.9,0.6c2.6,1,4.5,3.7,4.5,6.4
    c0,0.9-0.1,1.8,0,2.7c0.1,0.8-0.2,1.2-1,1.5C11.5,24.2,7,26,2.4,27.8c-0.5,0.2-1.1,0.4-1.6,0.6c-0.5,0.2-0.7,0-0.7-0.5
    C0.1,26.4,0.1,24.9,0.1,22.9z" />
</svg>

<svg style="width:69px;height:69px;background:red;zoom:4" viewBox="0 0 69 69">
  <path d="M38.6 34.4v9.1c0 .8.3 1 1 1 1.3 0 2.6.1 3.9-.1 3.4-.4 6.1-1.9 7.5-5.2 1.3-3.2 1.3-6.6.1-9.8-1.1-3-3.5-4.4-6.6-4.9-1.6-.3-3.3-.1-5-.1-1 0-1 0-1 1 .1 3.1.1 6 .1 9zm-16.5-.3V19.7c0-.8.1-1.7.1-2.5.1-2.6 2.2-4.6 4.7-5 .7-.1 1.5-.2 2.2-.2h18.6c4.9.1 9.5 1.4 13.5 4.3 3.9 2.8 6.2 6.8 7.1 11.4 1 5.7 1.1 11.4-1 16.9-1.9 5.3-5.7 8.7-11 10.7C53 56.7 49.5 57 45.9 57H29.7c-2.1 0-4-.5-5.6-2.1-1.5-1.5-2-3.3-2-5.2-.1-5.2 0-10.4 0-15.6zm-5 5.4c-.2 3.8 0 7.4-.2 11-.1 3.9-2.7 6.8-7 7.1-2.1.1-4.2.1-6.1-1a6.83 6.83 0 0 1-3.6-5.5c-.2-1.7-.1-3.3-.1-5V34.9c0-.7.2-1.1.9-1.4l10.8-4.2c1.4-.6 2.8-1.1 4.2-1.7 1-.4 1.1-.4 1.1.7v11.2zM.1 22.9c.1-1.7-.2-3.9.3-6 .8-3.5 3.7-5.7 7.3-5.7 1.7 0 3.3 0 4.9.6 2.6 1 4.5 3.7 4.5 6.4 0 .9-.1 1.8 0 2.7.1.8-.2 1.2-1 1.5C11.5 24.2 7 26 2.4 27.8c-.5.2-1.1.4-1.6.6-.5.2-.7 0-.7-.5v-5z" class="st0"/>
</svg>