<svg viewBox="0 0 44500 42000" style="background:lightblue">
    <style>
        #territories path {
            fill: grey;
            fill-opacity: 1;
            stroke: white;
            stroke-opacity: 1;
            stroke-width: 0.5;
        }
    </style>
    <g id="territories">
        <path id="AU-NT" title="Northern Territory" 
            d="m19529 2756 63-115-150-101 76-100 153 5-3-230 508 163 476-32 142 45 175-120 149 3 61 116-37 80 66-86 0-168 145-52 185 36-120-63-12-51 8-317 61-96-219-200-127-43-310 96-126-176-114-61-102 9 112-154 120-55 115 113 82 194 76-56-96-237 141 26 70-37 177 148 183 268 59 13 161-205 47 4 288 418 188-18 55 80 154 65 126-15 146-111 118 20-75 130 112 64 117-75 147 112 23 127 177-26 159 32 277-78 108 150 231 149 160 31 105-202 280-15 83-67-87 23 12-110 174-25 138-110-4-77 40 1 37 43-218 210 46 54-129 162 72 99 161-142 151-44-92 116 37 56 80-37 19 33-87 126 61 104 218-18 58-45 76-193-202-80 297-235 121-22-25 83 146 303 91-31-69-71 88-22 110 56 111 150-253 205-110 177-25 134-137-51 55 305-95 219-10-35-88 30-12-214-170 205-112-60-184 103-39 67 47 65-77 105-20 125 89 161 107-68-140 506-299 328-90 233-180 92 113 263 799 481 117 234 270 129 210 203 287 12 368 239 400 139 132 210 154 131 0 0 0 10955 0 0-9764 7 0 0-7-12849 0 0 201 122 6 226 71-88-29-296 252 102 233 305 60-23-115-179 23-205 167 29 155-107-194 61-98-63-96-154 127-29 75-74-122 39-130-24-197-152 13-89 133-213 261-164 104-531 77-80 48 91 105-19 242-205-161-197 27-246 45-20 47 43 111-58 29-245 168-75 100 114 96-7-92-27-31-117 37-159-33-25 207 27 137 234zm68-774-505-327-140-428 30-99 196 205 143 45 211-91 114 49 160-101 78 155-33-121 85-112 159 64 120 158 9 83-277 291-350 229zm6459 2481 64-31-28 140-57 22-555-91 55-366 31-53 181-55-31-70 91-76 47 3-50 81 40 116 103 18 80-113 40 63-164 147-64 251 176 49 41-35zm-6965-2592-180-69-251 64-78-39 52-137 91 32 40-39-21-201 89-155 96-20 160 400 158 93-25 55-131 16zm6525-421 294-479-53 204-177 248-64 27zm-4242-123-102-323 83-32 52 171-33 184zm4840 4979-130-147 82-119 90 194-42 72zm-926-2198-31-101-11 72-62-21 10-93 95-75 95 73-96 145zm-20-2400 0-51 99-79 82-4 144-112-119 138-206 108zm371 4392-6-108 93-28-19 123-68 13z" />
        <path id="AU-WA" title="Western Australia" 
            d="m1447 18078 20-184-243-257-247-541-115-70-98-278 3-161-244-385-6-235 161-560 75-150 154-121 27-101-9-291 63-192-12-114-164-385 301-733 105-156 144-50 14 28-107 409 70 148-34 216 47 48 237-100 302-702 317-176 119-9 433-190 182-215 203-110 129-194 255-119 97-112 246-73 252-181 183 79 207-111 299 126 372-63 179-78 356-299 61 29 615-102 194-281 109-83 118-11 427 128 221-114 599-107 749-328 271-226 230-311 164-353 150-202 25-178 151-37 432-360 26-143-118-54-44-70-12-214-64-166 37-356 222-279 74-47 138-1-55-123 46-62 202-31 9-182 145-111 28-99 77-28 74 74-77 23-36 125 152 146 520 995-13-260 60-182-49-150 20-86 69-2 217 239 65 2-91-81-39-156 103-118-136-6-172-242 6-123-122 2-83-75 234 34 74-112-2-101-160-58 12-131 169-37 87 68-80 68 172 134 79-150 191 45 98 134 112 6 56-64 99 48 453 12-302-89-233 2-27-121 59-134 44-10 52 79 81-56 24-220 122-123-120-7-88 150-146-81-31-220 93-213 135 43 81-42 8-242 46-11 517 299-114-101 23-144-201 38 28-120 73 0 43-74-176 85-62-86 82-67 87 12 106-124 94 182-3-144 174 136 123-26-273-206 65-52-116-172 217-250 274 29-10-268 42-96 120 57-94 398 87-252 131 67-20 120 84 79 146-143 118-429-71-182-69-44 217 39-9 84-56 24 37 122 104 72 50-203 183-95-51 125 158 169 205-287-47-196 122-49 106-25 67 54 120 217 28-79 294 60 104 147 149 100 325 452 47-23 184 158 20 109-129 336 4 331-57 114 83-72 38-246 136 103 32 106 5-108-108-267 124-170 51 147 103 3-66-276 161-46 504 126 0 0 6 12849 0 0-6 7013 0 0-888 431-921 300-703 63-551-99-120 59-105-23-496 358-231 67-603 384-504 113-191 198-163 543-202 176-38 110-211 164-187-14-218 161-73-172-90-38-188 64-533 8-100 69-12 66-144 15-42-14-9-162-84-89-231 97-347-107-650 51-350 79-134 74-447-59-208 64-214 159-161 303-154 151-127 75-322-67-187 127 16 75-38 43-263 110-212 239-217 116-265 48 21 55 150 33-67 38-225-102-102 28-25 91-301-158-416-1-82 54-448-75-264-176-264-61-173-278-346-294-276-112-129 85-123-131-60-743 47-218 243 168 192-41 343-463-128-764 109-190-68 162 94 156 47-254-61-1092-715-1529-26-289-94-267 44-712-98-349-57-135-234-278-38-293-88-178-378-487-65-293 50-176-21-127-200-492-381-615-331-352-61-193 69-254 50 302 34-192 161 199 35 270 105 177 153-61 78-116 6-206-337-315-63-260-110-178 85-203 247 305 40 113-57 175 35 195 92-34 87-168 87 360 120 161 136-107 29-97-54-132 37-233 35 9zm-1123 173-275-433-49-188 51-167 54 13-17 86 239 566-3 123zm12285-12376-58-135 98-72 94 157-134 50zm-9937 6176-72-14 1-61 147-172 23 122-99 125zm10606-7066-57-31 7-85 76-117 50 56-76 177z" />
        <path id="AU-ACT" title="Australian Capital Territory" 
            d="m39228 30601-126-64 0 0-173-294 2-184 52-256 285-210 351 219-231 69-52 72-62 249 16 314 0 0z" />
        <path id="AU-NSW" title="New South Wales" 
            d="m40243 32748-1925-970-98-8 99-248-168-293-56-442-118-75-182-78-93 36-153-29-101 17-101 126-280 73-146-10-452-169-220 99-535-78-310-219-177 70-131-39-270 35-58 162 17 136-234 43-134-78-228-267-56-128-281-259-352-226-189-68-35-169-169-72-50-110-16-401-231-126-289-62-82-81-81 48-84 217-92-18-93-225-94-87-5-188-151-254-212-116-170 35-161-42-210 148-319-183-187-14-84-60 0 0 5-6370 0 0 8631 0 557-495 120-33 140 69 637-108 188 144 345-29 274 125 277 239 13 188 68 109 106-68 98-200 187-83 107 110 208-100 35-201-98-222 227-144 216-71 128-138 119 80 178 39 382-9 83-110 264-73 81-66 0 0 78 71 15 81-35 267 70 208-20 248-171 224-120 352 30 87-121 689-255 771-14 335 75 143-246 895-366 604 19 348-437 357 19 113-361 152-258 488-130 64-11 59 46 41-35 139-124 166-73 443-188 58 104 56-283 359-102 297 44 54-54 246-92 121 114 190-17 88-29 25-36-39-2-88-98 40 20 112-177 132-410 949-29 519-63 82-190 720 5 197 108 125 14 94-1 45-77 24 35 313zm-969-2546 62-248 52-73 231-68-350-219-285 210-52 256-2 185 173 294 0 0 135 59 53-80-17-316z" />
        <path id="AU-SA" title="South Australia" 
            d="m25401 28328-108 174-88 39-93 159-112 70-67 133-77 233 75 6 145-102 15 69-17 259-52 22-184-195-68 10-48 113-39-1-344-432-120-78-112 39 104-208 5 82 142 152 57 39 108-35-123-85-131-714-247-310-209-170 19-215-163-381-124-48-287 81-66-74-211-547 87 6 58 105 96-167-22-114-176-173-284 113 33-176 73-8-135-188-178-126 12-47-74-23-131 143-346-24-414-299-218-26-279 130-143-14-463-388-674-315-385 173-700-39-1248 144 0 0 6-7018 0 0 9764-7 0 0 3257 0 3 3655 0 0-5 6370 0 0-28-37-4 5440 0 0-293 11-183-98-189-190-255-452-138-52-263-398 34-70-54-181 20-125 119-171-42-324-190-463-300-400-314-308 349 276 278 440-102-295-507-510-2-118 67-27 82 71 7 190 102-11 23-421-156-77-84 83-179 39-11 89 83 46-49 63-293-25-201 152-392 21-89-67 65-115 144-72 166-179 28-305 53-116-20-390-240-327-60-216-138-235-93 160 13 114-103 106-38 131-15 244-138 556-80 65-275-81-204 77-72 93-151-23-147 97-66-69 114-138 95-324 91 36 189-30 112 72 54-29 70-369-6-488-45-165 100-85 64-276 375-422-146-364 33-98 219-94-8-66-93-89-150-568-58-44-9 209 50 58 7 137-36 186-195 48-116 126-302 697-74 62-132 5-77-47-93 164-489 305-113 203zm1743 2018 165 45 54 142-79 71-129-63-174-13-153 72-6 120-173 101-106-108-143-27-82 80-475 17-189-186 46-197 585-143 214-95 227 19 64 61 14 128 210 75 64 5 66-104z" />
        <path id="AU-VIC" title="Victoria" 
            d="m39810 33052-292 82-1086 36-597 220-420 351-542 571-480 91-230-2-38 57 121 221 125-88 23-84 39 18 16 376-97 99-81-69-79-207-114-143-84-36-68 60-107-9-96-284-96-15-131 58-208-191 18-129 134-108-121-203-205 15-46 154-198 204-140 12-152-177 243-51 159-280-35-129-197-239-424 319-172 35 6 50 150 26 135-65 75 21 5 101-56 86-321 54-327 221-238 293-120 33-205 193-537-308-266-85-291-225-169-67-238 50-212-149-232-34-142 75 33 108-86 24-127-62-283-292-244-132 0 0 4-5440 28 37 0 0 84 60 187 14 319 183 210-148 161 42 170-35 212 116 151 254 5 188 94 87 93 225 92 18 84-217 81-48 82 81 289 62 231 126 16 401 50 110 169 72 35 169 189 68 352 226 281 259 56 128 228 267 134 78 234-43-17-136 58-162 270-35 131 39 177-70 310 219 535 78 220-99 452 169 146 10 280-73 101-126 101-17 153 29 93-36 182 78 118 75 56 442 168 293-99 248 98 8 1925 970 0 0-209 65-122 186-100 54zm-4584 955-78-30 13-152 174 36 44 52-153 94zm-2 192-90-68-164 0 76-74 101-20 77 162z" />
        <path id="AU-QLD" title="Queensland" 
            d="m40243 14014 66 82-128-339 85-222 86 3 132 267 426 227-64-237 30-61 79 14 77 115-24 131 147 209-69 467 61 126-13 168 72 146 169 61 157 278 113 41 166 178 133 68-9 60 83-40 28-89 48 14 271 271 215 463 365 242 43 221 178 295 257 52 42 176-58 151 29 207 69 44 58 142 160 99-123 403 92 936-133 114 33 166 208 202 68 233 92 129 32 87-24 163 104 206 0 0-81 66-264 73-83 110-382 9-178-39-119-80-128 138-216 71-227 144 98 222-35 201-208 100-107-110-187 83-98 200-106 68-68-109-13-188-277-239-274-125-345 29-188-144-637 108-140-69-120 33-557 495-8631 0 0 0-2-3654-3257 0 0 0 0-10955 0 0 315 211 379 42 221 109 182 26 142 197 23 146 106 158 192 41 195 160 215 62 222 156 410-45 474-251 134-509 258-335 100-226 152-482-28-189 65-414 223-570-107-294-49-315 86-376-133-217-9-134 79-328 159-309-103-328 167-147 53-147 65 20 82 219 9-47-61-178-180-233 32-26-93-21 25 111-63 20-36-42 197-351 80-248 47-21 27 132 116-23-84-158 191-608 27-466 212-59 110-204 183 45-105 118-8 101 108-85 147 125 47 103 84 342-7 487 118 104 146-26 104 93-105 169-27 214 215 87 4 116 164 110-73 257 165 33 8 471 79 142-69 360 77 200 92 97 105 434 114 82 135 1 459-260 45-101 43 10 68 102 39 247 68 81 239 68 68 151 387 214-88 211 60 220-44 129 121 323 0 203 112 188-65 402 439 532 136-47 26 32-79 195 162 331 79 370-11 299-100 212 8 109 220 288 132 50-61 400 312 293 215 49 133 133 202 45 73 69 318 11-33-119 167 260 43 220 81 112 109 2-9-133 66 1 98 210 334 61 86 104-26 44 151 149 57-25-15-139 239 175 104 19 180 348-156-90-53 22-80 99 67 180 527 419 27 230 220 352-14 221 99 354 191 319-29 169 158-130 169 211zm3370 3818-91-70-59-215 132-263-16-129 207-283-3-94-86-118 133-138 9 244 88 131-265 624-49 311zm-15126-10479 18-181 154-155 247-55 209 34 6 66-47 22-118-23-100 40-51 146-318 106zm13113 8089-175-214-52-175 48-11 173 131 83 226-77 43zm-5360-6127-75-29-21-104-125-139 199 61 90 130-68 81zm7726 10857 29-384 117 2-94 376-52 6zm20-448-72-202 0-164 93-51-21 417zm-12204-19028-68-55-5-69 110-52 46 121-83 55zm105-554-98-67 42-64 60-11 61 61-65 81zm-3096 7645-31-65 111-104 56 40 18 83-128-3-26 49z" />
        <path id="AU-TAS" title="Tasmania" 
            d="m36920 41449-90 45-20-45-140-22-94-71-329-32-70-68-131 40-78-26-115-181 64-45 261 67 2-98-77-64-42 76-312-54-262-471-91-20-56-90-115-362-102-68-59-521 20-26 220 198 47 218 90-252-102-36-193-212-35-213-318-467-292-717-73-409 88-80 2-166 66-44 243 29 142 105 172-28 997 507 332-10 94 53-5-50 162-117 57 18 24 95 148 27-130-84-5-69 215-120 141 47 227-46 66 59 78-47 134-204 69-17 177 86 69-40 76-169 117 34 210 189 60 135-69 246 57 241-47 172 44 229-54 292 108 594-57 81-39-33 37-168-124-284-126 250-82 593-65 134 12 152-78 81-44 148 62 20 12-68 96 98-52 259 48 215-104-66-119 94-172-269-14-71 95-117 82 167 128-36-80-140-291-150-60 45 55 175-29 58-107 35-21-225-98-63 34 86-116 339 6 201-75 19-87-56-94-187-46 27-1 100 137 125-196 490zm1316-4864-98-54-22-136-124-233-155-138 132-174 93-40 215 287 133 92 47 317-221 79zm-4567-195-38-28 6-187-62-81 3-77 19-227 85-63 2-118 46-13 142 124 41 376-44 151-200 143zm4795 520-23-97-252 32-97-42 2-55 72-59 149 19 152-77 148 176-151 103zm-1125 4383-138-17-57-119 192-237 70 183-67 190zm12568 18707-48-5-1-154 62-278 75-81-88 518zm-12504-19080-75-157 70-122 82 248-77 31zm709-754 5-196 119-43 44 111-76 1-92 127zm-3393-2934-25-83 65-77 98 112-138 48z" />
    </g>
</svg>