<svg viewBox="0 0 385 385" style="background:white">
	<defs>
		<circle id="c1" cx="421" cy="187" r="72" />
		<radialGradient r="82" gradientUnits="userSpaceOnUse"
			gradientTransform="matrix(0.66 0.75 1.05 -0.9 10 -48.7)" id="a" cx="449" cy="135">
			<stop offset="0.0" stop-color="#ffffff" />
			<stop offset="0.5" stop-color="#dedc00" />
			<stop offset="1.0" stop-color="#6cb52d" />
		</radialGradient>
		<radialGradient r="82" gradientUnits="userSpaceOnUse" gradientTransform="matrix(0.93 0 0 0.5 154.3 119.3)"
			id="b" cx="311" cy="77" r="82">
			<stop offset="0.0" stop-color="#ffffff" />
			<stop offset="0.5" stop-color="#a2daf8" />
			<stop offset="1.0" stop-color="#009fe3" />
		</radialGradient>
		<radialGradient r="82" gradientUnits="userSpaceOnUse"
			gradientTransform="matrix(0.93 0.36 -0.36 0.93 292 -1309)" id="c" cx="671" cy="1322">
			<stop offset="0.0" stop-color="#ffffff" />
			<stop offset="0.5" stop-color="#c8ead1" />
			<stop offset="1.0" stop-color="#13a538" />
		</radialGradient>
		<clipPath id="d">
			<use href="#c1" />
		</clipPath>
	</defs>
	<g transform="translate(-230 -90)">
		<path transform="scale(.1)" fill="#757474" id="roads"
			d="m2353 2574c66-11 211-24 313-24 136 0 249 27 329 94 74 60 123 150 123 273 0 89-26 163-69 216-47 58-116 97-195 121l287 475h-155l-266-442c-37 5-78 7-121 7h-108v436h-137v-1154zm137 609h110c103 0 229-14 307-87 40-39 66-94 66-174 0-92-32-157-86-197-57-44-136-61-216-61-53 0-129 7-181 14v505zm757-150c63-90 163-134 295-134 134 0 236 44 299 134 47 69 73 166 73 294 0 126-26 223-73 292-63 90-165 134-299 134-132 0-233-44-295-134-48-69-73-166-73-292 0-128 24-224 73-294zm100 507c40 73 107 103 195 103 92 0 158-31 197-103 27-52 42-121 42-213 0-94-14-165-42-215-39-73-105-103-197-103-89 0-155 31-195 103-26 50-40 121-40 215 0 92 15 162 40 213zm1180 192-11-65c-78 66-157 86-245 86-78 0-145-23-194-66-48-44-78-108-78-189 0-118 76-186 181-223 97-35 218-44 316-44v-42c0-61-10-105-31-134-29-37-76-52-145-52-94 0-184 27-258 60l-32-98c81-35 194-66 305-66 108 0 186 23 233 78 44 47 58 118 58 215v394c0 42 5 98 11 144l-110 3zm-31-417c-63 0-153 3-229 26-76 24-137 68-137 148 0 55 19 95 50 124 32 26 76 42 129 42 66 0 128-16 187-78v-263zm852 413-7-58c-57 50-137 82-224 82-103 0-199-37-265-113-61-69-97-174-97-315 0-126 31-223 84-292 71-90 182-136 316-136 55 0 115 11 163 31v-350l129-21v1172h-100zm-29-686c-45-23-102-35-158-35-95 0-169 32-216 100-35 52-57 124-57 221 0 98 21 173 58 224 45 61 113 90 192 90 71 0 134-29 181-76v-525zm736 3c-65-31-128-45-195-45-55 0-100 10-129 32-29 21-44 52-44 89 0 95 129 121 244 173 90 40 173 94 173 205 0 87-35 145-86 184-69 52-166 69-245 69-107 0-171-18-229-40l16-105c58 29 124 45 207 45 58 0 116-10 158-39 31-23 52-55 52-102 0-92-126-121-236-173-94-42-181-95-181-213 0-68 24-121 71-161 55-44 131-66 224-66 84 0 153 16 216 48l-16 99z" />
		<path transform="scale(.1)" fill="#009FE3" id="werkt"
			d="m4219 4077 48 184c11 40 20 78 27 115h2c8-37 20-76 32-115l59-185h55l56 181c14 43 24 82 32 118h2c6-37 16-75 28-118l52-182h65l-117 363h-60l-55-173c-13-40-23-76-32-119h-1c-9 43-20 81-33 120l-58 172h-60l-109-363h67zm562 193c1 89 58 126 124 126 47 0 76-8 100-19l11 47c-23 11-63 23-121 23-112 0-178-73-178-183s64-196 170-196c118 0 150 104 150 171 0 14-1 24-2 31h-254zm193-47c1-42-17-107-91-107-67 0-96 61-101 107h192zm151-33c0-43-1-79-3-113h58l2 71h3c16-49 56-79 100-79 8 0 13 1 19 2v62c-7-1-14-2-23-2-47 0-79 35-88 85-1 9-3 19-3 31v193h-65v-250zm316 54h1c9-13 22-29 32-41l106-125h79l-140 149 160 214h-80l-125-174-34 38v136h-65v-532h65v335zm392-271v104h94v50h-94v196c0 45 13 70 49 70 17 0 30-2 38-5l3 50c-13 5-33 9-58 9-31 0-55-10-71-28-19-19-25-52-25-94v-198h-56v-50h56v-87l64-17zm161 428c0-27 19-46 44-46 27 0 44 19 44 46 0 26-17 47-44 47-26 0-44-20-44-47zm18-107-11-360h72l-11 360h-50z" />
		<g id="cirkel">
			<use href="#c1" fill="url(#a)" />
			<rect x="230" y="80" clip-path="url(#d)" fill="url(#b)" width="385" height="80" />
			<g clip-path="url(#d)" fill="#ffffff">
				<polygon points="396 295 283 234 449 160" opacity="0.7" fill="url(#c)" />
				<polygon points="449 259 451 165 496 207 453 163 492 161 454 159 445 159 338 160 445 162 
			371 239 448 165 480 230 454 165 494 178 455 160 478 147 453 157 462 127 449 155 429 114 
			445 156 369 129 444 161 348 205 445 165 409 264 449 166" />
			</g>
		</g>
	</g>
</svg>