<svg viewBox="0 0 495 266">
  <g fill="#bcbec0" stroke="#000" stroke-linejoin="bevel" stroke-width=".3">
    <path d="m276 202-2 1h-2v-2l2-1h2v2zm4-6v2l-2-1v-2h2v-6h-5l-11 7-2-3v6h-7l4 11h13l9-11 1-4h-2zM108 76l3-2h3l-3 2h-3zm23-9-3 3h-7l-3 1h2l-2 2h-2l2-2h-5l-2 2h-2l1-4h-2l-2 2-4 5h-2l4-7 5-1-3-1h-6l1-1-4-3H58L45 77v10l5 5 16 2 2 3h5l3 8 8-9h16l1 8h3V94l27-23 2-1 1-3h-3zm16-1h10l-2-4h-2v-2zm-70 50-4-8 3-3-3-8h-5l-2-3-16-2v7l5 10 2-2-4-8v-5h3v4l7 18 13 5 3-1 2 3 2-2h2v-3h3l3-3v-3h-4l-2 4zm136-76 4-2v-1l-2-2-3 1h-4l-1 1h-2v2zm40 48v-2h-3v1zm-92-69v3h11l3 5v4l-5 3v6l3 4h4l6-7 9-2 3-3h7l4-1 9-14 5-1 2-2-15-2-13 2h-16l-10 3zm261 87-1-1-2 3 2 2zm-20-38v-2l-4-1-2-3h-9l-17-4-2 4-7-2-6 4 18 10 20 1 2-5zm4 46-3 1v1l1 2 2-2zm-10-52 2 3 4 1v2l-7 2-2 5-20-1-18-10-7 6 1 6-7 3 2 5 8 4v6l21 7 4-3 8 3-1 3 4 8 8-4 5 4 2-1v2l13-5 4-9-8-12 4-4h-4l-1 1-3-4 3-3 3 4 3-2 6-5v-8l-10-3-8-7h-7l1 6zm43 13h3l2-2-7-3v6h1zm-8 13v1l6-1 1 3 1-1v-2l5-1-1-5-1-4h-2l1 5-4 3zm-1 3h2l1 1-1 2zm6-1-1 2-1-2zm-7 35-3-1-2-1 2-3-2-3h-2v5l3 4h4zm-11 9h2l2-2v-2zm12 3v3l3-1-1-2h2l-2-5-1 3h-4zm-7-11 2 2v1l-2-2zm2 4 1 1 2-2h-2zm5-2 1 2h2l-2-3zm0 2v2l-2-1zm-2 1v3l-1-1zm3 33 1 2 3-1v-1zm-25-17v4l3 4h8l3-5v-9l-2 1-3 4-7 2-2-1zm-5 11v-3l-13-14-5-1 15 20zm15 6v1l-16-3 2-2 4 2 4-1zm10 0h-3l1 1h3zm-4 2v1h2l-1-1zm9-2-3 3h2l2-1zm-9-5h2v-3l1-2 1 3h2v-1l-1-3 2-2h-4v-1l1-2 3 1h1l2-2h-2l-1 1-4-1-2 2v4l-1 2zm14-5v2l4-1v-1zm1-10-1 2-1 3 2 1v-3l1-2zm10 10-1-3h-4zm0 2 6 3 1 3-2 1 5 2v-11l-4-2-4 3-5-1v2zm-20-71-4-4-2 2 3 6 3-1zm-4-4-2-1 3-1-1-5-6 5 2 3 2 1zm-5 57-4 5-8 4 2 1 7-2 3-4 2-1v-3zm-27 0 2 5 5 5 1-2-6-8zm68 28 4-4 5 5 5 1-6-5v-3l-10-6v11zm11-6 2 1 3-2v-2zm3-6 4 3h1l-4-3zm-85-42-4-8 1-3-2-1-4 3-1 11 2 2 1 5h2l1-1 3 2 1 5v5l2-4-4-13 2-2zm8 6 3 4-3 2h6v-1l-6-6-1-5-4-2-3 2v1l3 2v3zm-5 0v-3l-3-2-2 2 4 13-2 4-1 2 4 3v1h2l-3-5 1-8 4 4v-3l4-4-3-4zm4 8v3l2 2h2l3-3v-4h-6zm1-9 6 6v5l-3 3v3l6-4v-6l-7-7 1-4 2-1-5-4-5 2 4 2zm-26-14-1 1 2 6 1-1 6 5v-3l-3-3v-3l-3 1zm2 0-3-1v-2h-1l-2 3-11-4v-4l-3-1v-6l-3-2h-2l-3 3v2l2 1 1 4-5 4h-3v3l2 1v3l-3 1 3 1-1 2 1 1 3 1v-2h1l8 23 5-3 1-9 12-12-2-6 1-1 2 3 3-1v3l3 3 1-8 4-3-6-2-4 3zm-17-8v4l11 4 2-3zm14 5v2l3 1 1-2zm-64-27 2 2 3-1 3 2v-6l4-1 5 4 5-1 3 5h4l3-3h7l5 2-1-6 7-6-4-2-25-9-10 2v5h-18v5l3 3 5-2 3 2-4 2zm19 14-1-3-7-2-4 1v2h-5l-3-5-6 1v2l8 13h2l6 6 10 3h2l2-3-2-3-3-10zm-11-11-3-2-3 1 5 4v4l4-1 7 2 1 3 7-4-11-8h-4zm26 24h3l5-4-1-4-2-1v-2l3-3h2l-4-2-6 1-1 7-6 5h-6v2l2 3-2 3h9l3 3 3-1v-3l-2-1zm-17-27-5-4-4 1v6l3-1h4l11 8 3 1-2-4 5-2v-2l-7 1-3-5zm2 14-1 2 3 8h6l6-5 1-7-1-3-4 2-3-1zm14-6-4-2-2 1 2 4 4-2 1 3 6-1h-1l-2-4zm-1-7-3 3 3-1v2l-3 1 4 2 4-1v-1l7-3-5-2zm-39 4 3 2h3l-2-4h-2zm-6-1 4 1h2l2-2-6-3-2 1zm6 4 3-1-3-2h-2zm-33-33h-1v2l-3-2v2l4 1 3 2 1-1v-3h-2zm-4 4 2 1 1 2v1l4-3-3-2-4-1zm12 0h-4l-5 4 1 2 7 1 5-1-3-1 2-1zm-10-6v1l1 1h1l2 1h2v-4l-1 1zm9 13-7-1 1 2-3 3v2h10l1 1-2 3 2 1v-2h6l-1 2 1 1h3l-3-3 6-2 2-3-11-5zm-13-28-10 8v6l-2 2 4 5 6-6-3-3 7-7h1l-2-5zm-18 17 6-1 2-2v-6l10-8h5v-2l-5 1-20 13zm23-17h-4l2 5h1l-3 7 4 2h5l3-4-5-12h-3zm170 33h2l-7-7h-2l5 6 3 5h2zM263 53l-2-1v2l3 1zm144-24-2-2-11-2-3 3h-9l-4-3h-21l-2-5h-19l-17 8 4 4-3 4-3-10h-5l2 5-20 1-18 8-3-5h7l4-2-14-4h-3l5 12-3 4v7h4l3 4-2 1 3 1 11 5-2 3 1 2-2 1 1 2 6 3 2-1 6 3h2l-1-2v-6l-3-3v-5h18v-5l10-2 25 9 4 2 6-4 7 2 2-4 17 4h12l-2-6h8l8 7 10 3v8h5l2-4v-7l-7-8h-7l2-9 14 1 1-5 6 2v-2h2l2 2-2 2v5l10 10v-9l-6-6 13-4 1-2-7-1 2-3 6 2h5l-4-4-21-4zM256 65l-2 2 3 1h4l3-3h-1v-1zm-2-2 2 2 7-1v-1l-6-1zm-13 5h5l-1-2h-3zm9-5h4l3-1-5-2-4 1zm-31 21h1l1-8-3-1v6zm53-15 2-3-1-1h-3zm-8-14-3-1h-4l-5 1v5l5 2 6 1 3-3-1-2-1-2zm0 10-3 3 3 4h9l1-2-2-1-2-4zm-12-10h-6v-1h-2v1l-3 1v6l1 1v3h6l3-1-1-2-2-2 4-1zm-8-1h2v-5h-2l-1 3zm5-2-1-1h-1v2h2zm2 13-4 1h-2l1 2 3-1h5l2-1v-1l-2-2h-4zm2 17h-4v1l2 1 2 1zm-10-5v4h2v-4zm-2-9v2l2 1h3l8 8v3h2v-3h2l-10-9h3l-2-3-5 1zm3 6v2h1v-2zm-19-10v1l4 2v6l5 3 2-2h7v-3l-2-1 1-7-6-4-8 5zm13-6-2 1 4 2h1v-1zm3 2v-4l-3 2zm-1 1 1 1v-1zm-12-8v2l-2 1 1 2-3 3h4l4-1 1-2h1v-1l-3-1-3-7h-3v4zm-4 2v-2h-3l2 2zm-6 0v4h2v-1h3v-3l-2-2zm2 29 7 1 7-9-5-3h-11v2l3 1zm16-3v-2l-2 2zm25-3 5-1-1-2h-4zm-2-10v5l2 2h4l-1-3-3-4zm-8 2 3-1v-2h-5zm22 9h-3l3 5 12 1 13-2v-2l-2-3-4-1h-17zm-3-1h3l-1-3-2 1zm-14-4h1l2-1v-4l-5 1zm4 5 1 2h3l-2 1 3 3 1-2-2-4 3-1h3v-2zm-3-11-3-1v2l-3 1h1l4 4-2-4 5-1v-1zm2 7 1-1-1-1-2 1zl1 4 1-1v-3l-1-1zm7 2 6-2 1-3h-9zm44 28 1 1 1-1-2-2zm-27-18-4 1 3 1zm2 4v7h1l2-1 1-4h1v-2l-3 2zm24 14-3-6h-2l-1-1h-3l-10-5h-1l-1 4-2 1h-1l12 21 1 1 1-2 4 1v1l6-3 9-2v-5l-5-1-1-2zm-7-7h1l1 1h2l-2-3h-2zm-9-9-3 2 1 2 9 5h2v-2h4l-8-13h-4zm22 18h-3l1 2 3 1 4-4-2-2zm1 3h2v5l-4 1v2l2 2 8-10-4-4-4 4zm-30-22-1 3 2 2 6-4 1-6-9 2v3zm23 29-6 3v-1l-4-1-1 2 2 7 16-7-2-2v-2zm-24-26 1-3h-1l-1 3zm0 7v-7h-1l-1 4zm13 92 2 4h4l7-22h-3l-8 8v6zm-45-55-1-3h3l-3-6v3l-4 9h-4l-1 3h2v4h10v-1l-3-4zm-5 13h-3v4l3 5v-4h5l-2-8h-3zv-3h-3v3zm-10-9 1 2h4l1-3h4l4-9v-3h-16l-2 12zm-23-3 1 2v5l9-3v-7l-9-2v4zm1 7v-5l-3-4-3 3zm52 25-3-2v-5h-4v2l-4 1-1-3h-5v11l-3 5v4h19l-3-4v-4h4zm-37-29-2-9h-4v10zm20 6 2 8h-5v4l2 2 5-2 4-7 1-6h-5v1zm43-21 3 4 1-1-7-12-4 9zm-84 13 3-3-3-3-2 3zm88-6 1-1-1-3-2 2zm-13 39v3l2 1v3l-2 2v-4l-2-1h-1l-4 3 4 2v4l-2 6v6h2l4-3-1-8 9-7-1-9zm14-40-1 1 1 2 7 2-11 10v8l18-20-1-4-12 2zm-44 69h7v-17h9l-2-1h-21zm33-58h-3l1 4-1 3-1 3 8 5 3-3v-8l4-3h-10zm-4 10v1h-3v-2h-1l-3 8 5 8h3v4l8-2-1-12zm-68-48h-5v6l-2 3h-6v6l7 5v-2h9v-15h4l-7-5zm63 50 1-3h-3v4zm-2 5 2-5-2 1-1 2zm-72-27 3 3 2-3 3 3 2 2 1-1v-7h-9zm14-10h-9v2l2 5h4v3l5 1v-4l16-7v-5l-14-10h-4zm56 48 3 1-1 3-9-5v5h-4v4l3 4h6l9-7v-8l-1-2-5 1zm-13 24 2 3 11-7-4-7h-9zm-41-61 4 1v-3h4l5-2-5-4-8 4zm61 34v8h1l2 1v4l2-2v-3l-2-1v-7zm15-38-3-4h-7l-5 11 7 7h10l7-7-7-2-3-4zm-20 22h4l1-2h3l1-3-1-4-6 1zm-40-34v5l-8 3 5 4h2v-2h16l3-8-1-9h-7zm-34-4h6l2-3v-6h5v-3h-5l-8 9zm0 12 5 2h-5v2h9l-2-5-7-5zm5 2-5-2v2zm47-8-3 8 3 6h-3l1 3 12-5v-6l3-3v-6l-10-6h-4zm0-23-2-3-4-1-5 5 3 13h11l10 6 1-22-6-1-2 4zm-40 5h1v-1l12-7v-5l-9 1-8 12zm13-12v4l-12 7v2l21 15 10-7-5-24-6-1zm14-3 2 11 5-5h-2v-6zm27 96 6 8h5l2-6v-4l-4-2-5 4zm3 22h2l2-1v-2h-2l-2 1zm8-8h-2v2l2 1zm5-97-2-3-14-2-1 17h16l3-2-7-11 4 3zm2 10-3 2h-16v11l-3 3v6l9 10 5 2 9-1-6-6 5-11 4-9zm-11 48 3-14-5-2-14 1-1 9-4 7-5 2 1 2h5l1 3 4-1v-2h4v5l12 7 1-3-3-1 1-4 5-1zm-24-16 3 4h5v-3l14-1-9-10-12 5zm-16-12-5 2 2 8h1zm-5 2h-2l2 9 2-1zm-26 1 2-3h-4zM68 30l-3-1H46l-8 3v3h-9l-1 3 7-1-9 4-5 6h4l-8 5h3l15-7h16l5 5 2-2-2-2h-1l-2-2 16-14zM56 62l-3-2-1 1 2 2h2zm101 3-2-3h-2v-2l-6 5zm-3-36-12-5h-1l-4 4 1-4h-2l-5 5h12l7 6h-5l-2 2h-6v1h6l4 4h1l-1-3 3 2 1-1v-4l4 1 2-2-1-2-2-1zm-39 42h3l3-1h7l3-3h3l-1 3 5-1-3 2v1l9-3h-4l-2-2 2-3-1-1-7 3v-2l7-3h10l7-4v-2l-5-1-1-9-7 3v-4l-4-3h-4l-13 18h-3v-6l-11-6 11-8 6-1-1-2 10-1 3-4h-3l-5 3v-3h-2l-1-4-4 2 1 2-5 3-9-2-5 3-12-5H68L53 44l2 2h1l2 2-2 2-2 9 4 3v1h38l5 2 8-1 1 3 1 1h3zm14-34-3 2 6 1v-2zm-12-6 2 1 2-1-1-2zm3-5 1 2 4-2 1-2zm7-1v2l5-2-1-1zm13-4-3-1-3 3h11l3-2zm27-6 6-3-23 2v1h7l-1 1h-8l1 2h-3l1 1h-6l1 1h7l1 1 9-4zm-28 1 4 1 3-1-2-2zM93 28l11-4-3-1-9 3zm12-3-6 2 4 1-5 1 6 3 4-2 5 1 3-1-3-1 3-4h-3l-2 2v-2l-3 1zm-8 85h5l4 2-2 2h7l-8-6h-4zm7 7 1 1h3v-1l-1-1h-3zm18-1v1h1l1-1zm-37 5h-2l-2 2 4 2 3-5-1-2h-2zm4 4-1 1 1 1 6-6h-8l-1 3zm-1 1 1-1-3-1-1 1zm3-11-4 3 1 2zm0 15 5 1-1-10-6 6zm7 26 4 2 6-8-6-3-3 4zm13-27h-1l-4 5h-2l1 2-1 1 1 2-1 5-2 3 15 8v-9l3-1v-7l-6-1-2-2zm24 115 2 2h7l-7-4zm10-49-3 2h-4v-4l-8-5v1h-7l-2 16 4 17 3 6 1 5 5 8h2l-1-20 11-5-5-7v-7l4-5zm1 16 3-4-8-5v7zm-22-79-4-3h-9l1 6 2 2 6 1v7h1l1 3 4-1-1-4 5-2 2-7-2-2zm-33-2 3 4h1l2-2h-1v-1zm46 9-5-5-2 7 2-1v6h5l-2-5zm-13 29-5 2v11l4 8h7l2-5h5v-4l-8-7zm17-23h4l1-3-2-3h-2zm-4 39h-5l-2 4 8 5v4h4l3-2v-3l-7-4zm0-38 4-1 1-6h-5l-2 2zm21 6-4-2-4 2 1-3-2-1-4 3 3-4-2-5-1 3-13 1v-6l-2 1-5 2 1 4-4 1-1-3-4 1v11h-5l-2 7 8 6 6-2 5 5 8 7 1 8 7 4v5l-4 5 8 5 5-8 1-7 11-5 3-17 5-6v-4l-9-5-8-1zm-58-20-1 1-2-1-2 2 5 2 1-2 2 1 1 2 1-1-1-2v-2zm12 25h5v-2l-9-5-6 8-4-2v2l11 19 9 6 1-2v-11h-1l-8-6zm13 65-4-17 2-16-4-8-1 2 2 38 4 3v7l7 10h3l-5-8-1-5zm-5-107-5-1v3l2-1h2zm-5 1v-2h-3l1 2h-2zM481 220l-1 3 8-5-2-3v-3l-2 1v4zm-19 11 15-8v2l-11 8zm-62-40 13-6 9-10 5 2 3-5h8l-2 4 7 6 5-5v-7l2 1 3 12 8 11-1 8-14 15-13-1-1-8-4 2-4-3-25 5-1-2 2-5z"/>
  </g>
  <path fill="none" stroke="#000" stroke-width=".3" d="m267 132 11-1 3-4 3 5"/>
</svg>