<svg width="600" height="600">
  <path fill="#96642c" d="m0 0h600v600h-600"/>
  <path fill="#8c5829" d="M8 588c2-147 15-294 4-441L8-9c14 42 5 86 10 129 0 113 10 226-1 339-3 44-5 88-5 131-3 11-6 3-4-2zm41-30c-4-150-10-300 1-449 0-39-2-79 1-118 0 138 4 260-3 391 7 78 0 121 9 185 2 27-14 23-8-1v-4zm12 38c-5-210-4-396 0-590 18-5 1 39 6 52-14 187 7 361 2 533-1 4-4 7-8 5zm15-8c5-46 2-94-3-140-7-107-8-214-2-320 2-41 0-83 6-123 7 23-1 50-1 75-1 29-3 59-1 88 6-56 2-113 11-169-2 80-10 160-10 240-2 88 5 176 15 263 1 26 0 71-3 85-3-42 4-84-4-125-16-435-15-198 0 74-1 13 3 54-8 52zm-7-290c-4 2 3 3 0 0zm39 299c6-92 4-185 8-278-27-71-17-149-13-223 11-27-9-89 15-94 5 47-9 97 8 143 14 30 16 64 15 97-5 67 5 151 14 227 3 33 3 67 6 100 1 16-14 30-11 5-2-35 3-71-4-106-24-3-12 44-19 62-4 22-1 53-14 70l-3-1-2-2zm16-8c7-21 0-80 19-79 4 22 6 64-1 75-1-14 11-59-8-53-3 17 1 39-10 57zm37 3c8-91-5-182-14-272-4-51-4-103-1-154-2-20-40-49-4-50 11-27-2-58 1-86 9-46-10 40 12 27a1352 1352 0 0 0 7 361c4 47 4 93 7 140-9 9 2 27-8 34zm7 2c9-30 0-62 12-91 3-17-11-65-2-65 7 51 5 103-6 153 0 2-2 2-4 3zm12 3c9-31 5-64 13-95-6-105-29-210-27-308 3-35-10-72 5-106 3-27-6-60 6-81 18-30 5 27 4 38-10 84-2 140-4 254 21 79 26 159 22 234-3 15-6 69-19 64zm45-8c6-98 9-197-2-295-4 25-22 23-19-2-10-53-21-109-6-162 8-35 20-70 22-106-5 9-17 55-10 21-4-14 19-62 17-26-3 11-11 55-3 47 4-23 0-83 38-65 4 42 5 85 16 126 0 29 3 69-15 91-9-21 2-55-15-70-22 39-5 59-8 127-17 113 28 211 7 317-5-24-2 13-8-10-3-33 6-67-5-99-2 35 9 73-4 107-7 9-6 8-5-1zm2 3c-4 2 4 3 0 0zm8-218c0-48-5-109-9-164-7 10-9 59-20 24-15-38 3-79 14-115 6-15-8-29-7-7-9 40-20 81-13 123-7 25 25 40 25 14 8 25 4 54 7 80 2 31 3 61 2 92l1-47zm-22-108c-4-9 4 5 0 0zm39 323c-9-14 15-45 12-13 2 9-6 38-12 13zm15 10c4-43-9-85-16-126-7-89-13-178 0-266 8 6 6 58 17 34-2-23 26-26 17 1 7 103 4 208 9 312-8-105-3-209-13-313-17-8-11 52-26 20-14 46-8 96-7 143 4 64 24 126 20 190zm30-32c-5-78-7-240-6-361 8-71 13-143 7-214 14 10 2 67 6 25-2-21 5-22 3-1-1 73 3 147-4 220-3 32 3 63-2 94-1 88 6 175 5 263-14 14-7-20-9-26zm7-9c-2-17 0-40-4-54 1 18-2 36 4 54zm16 39c-5-93-2-188-1-303 6-83 14-166 3-248-3-14 2-70 5-32l5 141v88c14-32 4-69 7-103-3-41-4-83-9-124 11-34 13 20 13 32 11 199-15 369-5 549-26-114 1-241-2-348-15 41-4 78-13 146-2 47-1 95 3 143-13 21 17 39-6 59zm48 1c-2-51-14-100-11-151-3-145 10-291 11-436 11-16 2 36 3 46-3 125-15 279-9 419-4 34 16 57 12 91-1 10 9 27-6 31zm12-3c6-53-6-105-14-157-7-69-1-139 0-208 7 39 0 79 3 118 0 46 8 92 15 137 3 37 3 74-2 111h-1zm10 3c3-74 2-150-14-224-6-108-4-217 9-324 0-14-3-59 17-45-1 52-13 104-18 156-5 179-3 173 11 228 3 43 7 86 7 129-2 27 9 63-11 79l-1 1zm18-82c2-145-19-292 0-437 0-20-1-72 5-70-5 132-12 265-3 397 2 65 4 129 3 193-13-26 0-55-5-83zm44 79c0-44 3-87 7-130 34 14 5 58 11 86 0 12 6 53-18 44zm27 0c2-16 6-66 5-26 0 9-1 18-5 26zm37-4c-3-153 24-306 4-459-7-45-6-92-4-138 13 56 1 115 10 132 10 122 4 245 2 368-7 32-3 75-12 102zm8-6c5-40 18-79 10-119-2-97 0-193 0-290l3 396c0 8-16 39-13 13zm10-150c-4 2 4 3 0 0zm19 138c7-10-6-31-4-8 4-81 13-163-1-243-3-70 3-141 2-211 3-38-5-79 6-115 28-21 55 16 39 42 6 169 5 339 3 508 5 24-8 57-34 53-10-4-14-17-11-26zm29-308c3-76 1-152-5-228-15 29-3 64-9 96 1 47 5 94 12 140l2-8zm-5-12c-2-7 2 3 0 0zm20-114c-3 2 4 2 0 0zm0-5c-3 2 4 3 0 0zM375 593c-1-7 3 2 0 0zm-125-20c-6-13 6 0 0 0zm183-18c-15 3 7-25-10-15-3-117-10-234-8-351 1-30 5-61 4-91 19-23 12 28 16 40 2 31 7 60 13 89 17 68 23-69 27-92 6-24-1-58 16-75 9 26 7 55 13 82 11 91 15 184-3 274-17-34-17-76-27-112 7 24-12-21-13 9l-19 145c-4 32-5 65-8 97h-1zm-6-103c-3 2 4 2 0 0zm15-163c-5-38-9-77-16-115-12 39-5 81-5 121 2 34 0 69 6 103 24 16 16-99 15-109zm60 60c12-79 4-160-10-238-24 33-10 76-16 113 2 43 7 86 26 125zM178 554c-2-9 4 4 0 0zm226-16c1-16 2 8 0 0zm104-29c-3-17 5-22 2-1 1 15-4 26-2 1zm-24 20c-6-15 3-47 1-13l-1 13zm-346-9c-1-7 4 3 0 0zm189-6c0-9 2 5 0 0zm0-9c1-10 1 10 0 0zm-170-2c-1-7 3 3 0 0zm170-7c1-9 1 8 0 0zM7 455c11-142-1-123 2-5 0 11-2 26-2 5zm264 9c1-23-14-81 1-82 6 26 12 53-1 82zM51 444c-3-29 5-13 1 6zm5-29c-8-5 2-8 0 0zm110-18c-9-61-9-123-10-185-1-64-6-79 11-205 7 15-9 61-7 88-3 64-1 129 0 194 16 32-24 88 6 108zM48 317c-32 189-16 95 0 0zm174-17c-8-7 3-9 0 0zm109-36c-2-7 2 2 0 0zm1-18c-2-7 2 3 0 0zm-55-6c-2-7 2 3 0 0zm235-16c5-5-1 8 0 0zm-145-39c2-61 4-123 13-184 9 33-8 66-7 99-2 35-1 69-6 103v-18zm232-10c-2-7 3 2 0 0zm-66-2c-2-46-11-71-9-170 16 5 3 48 8 66 1 35 5 70 1 104zm-3-111c-3 2 4 2 0 0zm69 103c1-10 1 9 0 0zm-348-11c-4-16 5 6 0 0zm35-2L268 7c14 23 7 55 12 82-2 16 15 34 16 7 4-23-4-71 0-80 2 45 5 91-6 135 3-12-2 1-4 1zm113-1a831 831 0 0 1 0 0zm-211-7c1-14 12-48 6-14-1 5-2 11-6 14zm410-17c1-10 1 12 0 0zm-311-12c-3-6 7 2 0 0zm311-13c0-11 1 8 0 0zm-469-7c-8-49 4-127 8-39-1 13-2 27-8 39zm326-16c1-23-17-79 11-76 7 26-9 50-11 76zm40 0c-2-7 2 2 0 0zm-227-6c2-6 1 8 0 0zM137 56c-1-7 3 2 0 0zm247-31c-1-7 3 2 0 0z"/>
</svg>